<svg width="113" height="182" viewBox="0 0 113 182" fill="none" xmlns="http://www.w3.org/2000/svg">
<g clip-path="url(#clip0_170_43)">
<path d="M23.0912 72.4338C23.1232 71.3966 23.2513 66.9237 23.1552 65.9179C23.0592 65.0064 23.3473 64.315 24.0197 63.7806C24.9803 62.9949 25.9728 62.2091 27.0935 61.3291C26.9654 58.5004 26.8053 55.6088 26.6452 52.623C26.197 52.5601 25.8127 52.4658 25.4605 52.4658C15.3107 52.5287 7.5943 45.7084 5.4811 36.4365C4.16834 30.6219 4.71266 25.0588 8.26669 20.0929C11.5646 15.4098 16.3033 12.8954 22.0666 12.3611C26.4531 11.9525 30.6475 12.6754 34.6818 14.404C34.8739 14.4983 35.098 14.5926 35.2902 14.6555C35.3862 14.6869 35.5143 14.6869 35.8024 14.7183C36.0906 14.2469 36.4108 13.7125 36.763 13.1782C40.6372 7.20653 45.8882 3.15205 53.1884 2.24058C63.5943 0.951942 71.727 4.8807 77.8745 13.0525C78.1947 13.4925 78.5149 13.9326 78.8351 14.3726C78.8671 14.404 78.9311 14.4354 79.1232 14.5612C79.5715 14.4354 80.1158 14.2469 80.6921 14.0583C85.8151 12.4868 91.002 12.2039 96.157 13.8383C102.465 15.8498 106.531 19.9986 108.356 26.2846C109.541 30.4019 109.669 34.5507 108.42 38.6366C106.115 46.3055 100.704 50.5172 92.731 51.6801C91.2582 51.9001 89.7853 51.9629 88.1844 52.0887C88.0243 55.2002 87.8963 58.2804 87.7682 61.2662C88.8568 62.1463 89.8494 62.9006 90.8099 63.6864C91.4823 64.2521 91.7385 64.9436 91.6744 65.855C91.5784 66.8608 91.7064 71.3338 91.7385 72.371C90.4257 72.371 89.0809 72.371 87.7682 72.371C87.7682 71.4595 87.7682 67.1122 87.7682 66.2008C86.2313 64.8807 84.5984 64.0321 82.8053 63.4035C76.5938 61.2662 70.1261 60.3862 63.6264 60.229C57.9591 60.0719 52.2599 60.2919 46.5926 60.5433C41.8219 60.7634 37.1792 61.7691 32.6647 63.2149C30.6795 63.8435 28.7264 64.6293 27.0935 66.2322C27.0935 67.1122 27.0935 71.4595 27.0935 72.371C25.7487 72.4338 24.4359 72.4338 23.0912 72.4338ZM88.4726 44.4826C88.4726 45.6769 88.4726 46.8398 88.4726 48.0656C90.8099 48.2856 93.0832 47.9399 95.3245 47.2484C99.7751 45.8655 102.817 43.0054 104.354 38.668C105.794 34.5821 105.698 30.4648 104.258 26.3789C102.817 22.2301 99.9992 19.4014 95.7728 17.8613C90.1055 15.7869 84.5984 16.4784 79.1873 18.8357C78.5469 19.1185 77.9065 19.4328 77.3302 19.7157C77.1381 19.5585 77.01 19.4957 76.978 19.4014C76.8499 19.1814 76.7219 18.9299 76.5938 18.6785C74.7687 14.7812 72.0792 11.5753 68.3971 9.31234C61.4491 5.03785 54.213 4.40925 46.9128 8.49516C42.7824 10.821 40.0929 14.4354 38.2999 18.7099C38.0117 19.4328 37.6915 20.1243 37.2753 21.0672C35.5463 19.2757 33.8493 18.0813 31.7361 17.3584C28.4382 16.2584 25.0443 15.7869 21.6183 16.3212C15.855 17.2327 11.6927 20.25 9.64348 25.8131C8.49082 28.9561 8.52284 32.1934 9.22724 35.4307C10.636 42.2196 15.5028 47.0599 22.1626 48.3171C23.5394 48.5685 24.9482 48.6942 26.4851 48.5371C26.4211 47.4056 26.3891 46.4312 26.325 45.4569C23.3793 45.0798 20.6578 44.514 19.0248 41.8425C20.1455 41.8739 21.2021 42.031 22.2587 42.2196C28.3102 43.1625 32.6647 40.6795 34.4897 35.1793C32.5686 33.4506 30.2633 31.942 29.751 29.0819C31.1918 29.8676 32.5046 30.7476 33.7533 31.6905C37.4354 34.4564 41.5337 36.3736 45.9843 37.6308C53.8288 39.8309 61.4811 39.6109 68.9094 36.0593C71.0226 35.0536 73.1038 33.9221 74.8968 32.4134C74.6407 29.9933 73.9043 27.6361 75.6973 25.2788C76.0175 26.3789 76.2416 27.196 76.4977 28.0447C77.6824 32.0048 79.5395 35.5879 82.6453 38.4794C84.8225 40.491 87.352 41.8739 90.0735 42.9425C90.6498 43.1625 91.1621 43.4768 91.7385 43.7283C91.7064 43.8854 91.6744 44.0426 91.6424 44.1997C90.6498 44.2626 89.6893 44.3569 88.4726 44.4826ZM30.9357 59.6319C48.8019 55.0431 66.3159 55.0431 83.99 59.6633C84.1821 53.9745 84.3422 48.3799 84.5343 43.0368C82.8694 41.811 81.4286 40.8996 80.1798 39.7681C78.9311 38.668 77.8425 37.348 76.5938 36.0593C64.0426 44.2311 51.1392 45.4569 37.7556 37.6623C35.9625 40.8681 33.6252 43.3825 30.2313 44.6712C30.4554 49.7628 30.6795 54.6659 30.9357 59.6319Z" fill="#3838F9"/>
<path d="M73.1987 66.4246C94.7953 66.4246 105.593 77.2225 105.593 98.8191V147.412C105.593 169.008 94.7951 179.806 73.1987 179.806H40.8032C19.207 179.806 8.40882 169.008 8.40869 147.412V98.8191C8.40869 77.2226 19.2069 66.4247 40.8032 66.4246H73.1987ZM178.482 131.214L194.679 66.4246H243.272V179.806H202.779V125.788L194.679 179.806H162.285L154.186 126.031V179.806H113.692V66.4246H162.285L178.482 131.214ZM316.161 66.4246C337.757 66.4246 348.556 77.2225 348.556 98.8191C348.556 109.617 343.156 117.716 332.358 123.115C343.156 128.514 348.556 136.614 348.556 147.412C348.556 169.008 337.757 179.806 316.161 179.806H251.371V66.4246H316.161ZM291.865 147.412H308.062V139.312H291.865V147.412ZM50.7749 109.522C47.2901 107.496 42.8599 109.928 42.8599 113.866V141.576C42.8625 145.516 47.2907 147.949 50.7729 145.922L74.5786 132.066C77.959 130.097 77.9589 125.345 74.5786 123.376L50.7749 109.522ZM291.865 106.918H308.062V98.8191H291.865V106.918Z" fill="#3838F9"/>
</g>
<defs>
<clipPath id="clip0_170_43">
<rect width="113" height="182" fill="white"/>
</clipPath>
</defs>
</svg>
