<svg width="26" height="26" viewBox="0 0 26 26" fill="none" xmlns="http://www.w3.org/2000/svg">
<path d="M11.7349 3.53024H3.38553C2.75285 3.53024 2.14608 3.78157 1.69871 4.22894C1.25133 4.67631 1 5.28308 1 5.91577V22.6145C1 23.2472 1.25133 23.8539 1.69871 24.3013C2.14608 24.7487 2.75285 25 3.38553 25H20.0842C20.7169 25 21.3237 24.7487 21.7711 24.3013C22.2184 23.8539 22.4698 23.2472 22.4698 22.6145V14.2651M20.6806 1.74109C21.1551 1.26658 21.7987 1 22.4698 1C23.1408 1 23.7844 1.26658 24.2589 1.74109C24.7334 2.2156 25 2.85918 25 3.53024C25 4.2013 24.7334 4.84487 24.2589 5.31938L12.9276 16.6506L8.15659 17.8434L9.34935 13.0724L20.6806 1.74109Z" stroke="white" stroke-width="2" stroke-linecap="round" stroke-linejoin="round"/>
</svg>
