<svg width="131" height="132" viewBox="0 0 131 132" fill="none" xmlns="http://www.w3.org/2000/svg">
<path d="M62.6265 11.6945C62.3919 11.6895 62.2016 11.6054 62.0558 11.4422C61.9097 11.2897 61.8392 11.0961 61.8442 10.8615L61.9924 3.98308C62.0126 3.04463 62.2103 2.28605 62.5855 1.70733C62.95 1.12837 63.4391 0.71214 64.0527 0.458625C64.6559 0.194216 65.336 0.0701646 66.0932 0.0864696C66.4771 0.094737 66.8602 0.140329 67.2425 0.223246C67.6251 0.295498 67.9376 0.398251 68.1801 0.531503C68.4335 0.654321 68.6117 0.802191 68.7147 0.975115C68.8176 1.14804 68.8296 1.33501 68.7506 1.53602C68.6704 1.79035 68.5387 1.96355 68.3553 2.05563C68.1722 2.13704 67.9855 2.13835 67.7951 2.05957C67.6154 1.98102 67.3776 1.87987 67.0815 1.75613C66.7854 1.6324 66.4454 1.5664 66.0615 1.55813C65.539 1.54688 65.0946 1.62266 64.7283 1.78548C64.362 1.9483 64.0844 2.20905 63.8953 2.56772C63.6955 2.92617 63.5894 3.39333 63.577 3.9692L63.5533 5.07294L63.3056 4.68352C63.4838 4.33527 63.714 4.04683 63.9964 3.81819C64.2787 3.58955 64.6132 3.41538 64.9999 3.29567C65.3759 3.17574 65.7931 3.12071 66.2517 3.13059C66.8382 3.14322 67.342 3.2821 67.7631 3.54722C68.1732 3.82278 68.4854 4.19226 68.6994 4.65564C68.9133 5.12969 69.0138 5.66531 69.0009 6.2625L68.8986 11.0134C68.8935 11.248 68.8148 11.4384 68.6622 11.5844C68.5095 11.7412 68.3158 11.817 68.0812 11.812C67.8573 11.8072 67.6724 11.7232 67.5265 11.56C67.3698 11.4072 67.2939 11.2136 67.299 10.979L67.392 6.65996C67.4071 5.95612 67.2636 5.43558 66.9615 5.09833C66.6591 4.77174 66.204 4.6019 65.5961 4.58881C65.1909 4.58009 64.8372 4.65782 64.5349 4.82202C64.2326 4.98621 63.9929 5.21577 63.8159 5.5107C63.6386 5.81628 63.5456 6.1717 63.5369 6.57694L63.4439 10.8959C63.4388 11.1305 63.36 11.3209 63.2075 11.467C63.0441 11.6235 62.8504 11.6993 62.6265 11.6945Z" fill="black"/>
<path d="M75.3076 4.11417C75.5394 4.15038 75.7176 4.25378 75.8421 4.42437C75.965 4.6055 76.0083 4.81199 75.9721 5.04384L74.9253 11.7466C74.8891 11.9785 74.7857 12.1566 74.6151 12.2811C74.4429 12.4162 74.2408 12.4656 74.009 12.4294C73.7876 12.3948 73.6156 12.287 73.4927 12.1058C73.3577 11.9336 73.3082 11.7316 73.3445 11.4997L73.621 9.72917L73.6729 10.4336C73.5425 10.7155 73.3732 10.9698 73.1651 11.1964C72.9464 11.4214 72.7011 11.6098 72.4291 11.7616C72.1571 11.9134 71.8653 12.019 71.5537 12.0783C71.2316 12.136 70.9072 12.1393 70.5805 12.0883C70.3065 12.0455 70.0809 11.9347 69.9037 11.7559C69.7265 11.577 69.6552 11.377 69.6898 11.1557C69.7342 10.8711 69.8409 10.6718 70.0098 10.5579C70.1771 10.4545 70.3504 10.4167 70.5295 10.4447C70.6876 10.4694 70.8355 10.5249 70.9732 10.6112C71.1092 10.708 71.2773 10.772 71.4776 10.8033C71.6989 10.8379 71.9345 10.8153 72.1845 10.7356C72.4344 10.6558 72.6724 10.5149 72.8983 10.3126C73.1225 10.121 73.3165 9.88135 73.4802 9.59382C73.6333 9.30465 73.7395 8.97037 73.7987 8.59097L74.3913 4.79696C74.4275 4.5651 74.537 4.38248 74.7197 4.24908C74.8903 4.12458 75.0863 4.07961 75.3076 4.11417Z" fill="black"/>
<path d="M80.7078 5.0664C81.5589 5.31048 82.2471 5.69651 82.7726 6.22451C83.2951 6.76275 83.6425 7.38947 83.8146 8.10465C83.9736 8.82714 83.9384 9.58827 83.709 10.388C83.4503 11.2903 83.0503 12.0079 82.5091 12.5406C81.9547 13.0807 81.3368 13.4361 80.6553 13.6069C79.9709 13.7879 79.3006 13.7843 78.6443 13.5961C78.1419 13.452 77.6946 13.2127 77.3022 12.8782C76.907 12.554 76.5865 12.1625 76.3408 11.7037C76.0819 11.2521 75.919 10.756 75.8522 10.2153C75.7824 9.68483 75.8232 9.13616 75.9747 8.56928C76.0438 8.36716 76.1743 8.2215 76.3664 8.13232C76.5584 8.04314 76.7569 8.02795 76.962 8.08677L82.9448 9.80265L82.939 11.2158L77.1561 9.55727L77.5277 9.36424L77.4175 9.74874C77.3351 10.1135 77.3633 10.46 77.5021 10.7884C77.6381 11.127 77.8444 11.4136 78.121 11.6483C78.3948 11.8933 78.706 12.0658 79.0546 12.1657C79.3622 12.254 79.6742 12.288 79.9907 12.2678C80.294 12.2549 80.5893 12.1731 80.8767 12.0225C81.1537 11.8689 81.4104 11.6318 81.6466 11.3112C81.8696 10.9979 82.0561 10.5798 82.2061 10.0568C82.3678 9.49292 82.3911 8.96694 82.2758 8.47892C82.1606 7.9909 81.9368 7.57163 81.6046 7.22112C81.2694 6.88086 80.8608 6.64162 80.3789 6.50341C79.9996 6.39461 79.6765 6.3408 79.4099 6.342C79.1403 6.35345 78.9073 6.39204 78.7109 6.45778C78.5145 6.52352 78.34 6.59001 78.1876 6.65725C78.0073 6.70542 77.8403 6.70745 77.6865 6.66334C77.5019 6.61041 77.3673 6.49965 77.2824 6.33107C77.1947 6.17274 77.1758 6.00643 77.2258 5.83212C77.2905 5.60655 77.4621 5.43383 77.7406 5.31396C78.0939 5.12678 78.546 5.00123 79.097 4.93731C79.6377 4.87046 80.1747 4.91349 80.7078 5.0664Z" fill="black"/>
<path d="M92.6954 9.67261C92.899 9.76608 93.0423 9.91406 93.1254 10.1165C93.1944 10.3243 93.1799 10.5347 93.0819 10.748L88.8222 20.0247C88.7243 20.238 88.5763 20.3813 88.3783 20.4547C88.1661 20.5334 87.9582 20.5259 87.7547 20.4325C87.5414 20.3345 87.4003 20.1817 87.3314 19.974C87.258 19.776 87.2702 19.5703 87.3682 19.3571L91.6279 10.0803C91.7258 9.86707 91.876 9.7189 92.0785 9.63581C92.2765 9.56242 92.4822 9.57468 92.6954 9.67261ZM84.43 15.1733C84.2458 15.0887 84.1215 14.9377 84.057 14.7203C83.9925 14.5029 83.9958 14.3167 84.0671 14.1616C84.1561 13.9677 84.3305 13.8306 84.5904 13.7504L91.011 11.7689L90.3013 13.4678L85.0748 15.1877C84.8485 15.2716 84.6335 15.2668 84.43 15.1733ZM87.7741 7.43042C87.9777 7.52389 88.1143 7.68641 88.1841 7.91796L89.6834 12.3213L88.1109 12.8317L86.6843 8.46174C86.6049 8.22573 86.6119 8.00595 86.7054 7.80238C86.8033 7.58912 86.9707 7.4547 87.2075 7.39911C87.4301 7.34876 87.619 7.3592 87.7741 7.43042Z" fill="black"/>
<path d="M90.7909 18.0946C90.5948 17.9656 90.4783 17.7933 90.4414 17.5776C90.3987 17.3707 90.4418 17.1693 90.5707 16.9732L94.368 11.1978C94.497 11.0017 94.6678 10.8778 94.8805 10.8262C95.0873 10.7834 95.2887 10.8265 95.4848 10.9554C95.672 11.0785 95.7914 11.2464 95.843 11.4591C95.8799 11.6748 95.8339 11.8807 95.705 12.0768L95.0721 13.0394L94.8177 12.8147C94.9232 12.6542 95.1072 12.5199 95.3698 12.4117C95.6235 12.2977 95.9233 12.2203 96.2692 12.1797C96.6092 12.1479 96.9718 12.1693 97.3568 12.2438C97.7361 12.3271 98.0995 12.4831 98.4471 12.7116C99.062 13.116 99.5121 13.6353 99.7972 14.2695C100.076 14.9127 100.177 15.6043 100.099 16.3444C100.021 17.0846 99.7502 17.8067 99.2873 18.5108C98.8126 19.2327 98.2539 19.7718 97.6112 20.1279C96.9627 20.493 96.2952 20.6733 95.6089 20.6688C94.9136 20.6584 94.2673 20.4569 93.6702 20.0643C93.2869 19.8123 92.9759 19.5184 92.7371 19.1827C92.4893 18.8411 92.3096 18.4931 92.1979 18.1388C92.0862 17.7845 92.0412 17.4549 92.0629 17.1501C92.0698 16.8483 92.1378 16.5993 92.2667 16.4033L92.7075 16.6356L91.9076 17.8522C91.7846 18.0394 91.6167 18.1588 91.404 18.2105C91.1824 18.2562 90.978 18.2176 90.7909 18.0946ZM97.4913 13.8449C97.0724 13.5695 96.6322 13.4332 96.1707 13.4362C95.7092 13.4391 95.2692 13.5647 94.8507 13.8129C94.4263 14.0701 94.0647 14.4259 93.7658 14.8804C93.4611 15.3439 93.2777 15.817 93.2157 16.2996C93.1537 16.7822 93.2128 17.2359 93.393 17.6608C93.5732 18.0857 93.8728 18.4358 94.2917 18.7113C94.7017 18.9808 95.1374 19.1141 95.5989 19.1112C96.0515 19.1024 96.4915 18.9768 96.919 18.7344C97.3375 18.4862 97.6991 18.1304 98.0038 17.6669C98.3027 17.2124 98.4861 16.7393 98.5539 16.2478C98.607 15.7593 98.5479 15.3056 98.3766 14.8866C98.1964 14.4617 97.9013 14.1145 97.4913 13.8449Z" fill="black"/>
<path d="M99.9114 24.606C99.3564 24.1065 98.9897 23.5253 98.8112 22.8625C98.6249 22.1926 98.6261 21.4976 98.8148 20.7777C98.9963 20.0657 99.3725 19.3926 99.9433 18.7583C100.514 18.124 101.148 17.6753 101.844 17.412C102.54 17.1488 103.23 17.0671 103.915 17.167C104.593 17.2748 105.202 17.5713 105.741 18.0565C106.042 18.3276 106.285 18.6321 106.469 18.9698C106.646 19.3155 106.769 19.6564 106.84 19.9926C106.903 20.3367 106.924 20.6566 106.902 20.9523C106.872 21.2409 106.805 21.4748 106.701 21.654L106.241 21.5196L107.172 20.4849C107.322 20.3184 107.51 20.2292 107.735 20.2173C107.946 20.2062 108.135 20.2756 108.302 20.4254C108.476 20.5824 108.569 20.7664 108.58 20.9773C108.591 21.1882 108.518 21.3808 108.361 21.5553L101.447 29.2381C101.29 29.4126 101.106 29.5053 100.895 29.5164C100.677 29.5355 100.481 29.4665 100.306 29.3095C100.14 29.1597 100.055 28.9753 100.051 28.7565C100.032 28.5385 100.101 28.3422 100.258 28.1678L103.265 24.8259L103.359 25.1042C103.2 25.2334 102.985 25.3202 102.716 25.3646C102.439 25.417 102.138 25.4328 101.812 25.4122C101.478 25.3845 101.149 25.3036 100.825 25.1696C100.485 25.0365 100.181 24.8486 99.9114 24.606ZM101.027 23.6295C101.407 23.972 101.826 24.1766 102.283 24.2432C102.732 24.3026 103.181 24.2412 103.633 24.0588C104.077 23.8844 104.484 23.591 104.855 23.1787C105.226 22.7664 105.482 22.3224 105.623 21.8467C105.757 21.3789 105.771 20.925 105.665 20.485C105.551 20.0378 105.303 19.643 104.923 19.3005C104.55 18.9651 104.139 18.7677 103.691 18.7083C103.242 18.6488 102.788 18.7142 102.33 18.9045C101.864 19.0877 101.449 19.3815 101.085 19.7858C100.714 20.1981 100.469 20.6377 100.35 21.1047C100.216 21.5725 100.202 22.0264 100.309 22.4665C100.415 22.9065 100.654 23.2942 101.027 23.6295Z" fill="black"/>
<path d="M109.107 34.6699C108.849 34.2908 108.674 33.9005 108.581 33.4991C108.488 33.0976 108.461 32.7162 108.499 32.3549C108.522 31.9908 108.59 31.6736 108.702 31.4032C108.815 31.1329 108.946 30.9467 109.096 30.8446L109.317 31.1398L108.259 31.8602C108.073 31.9863 107.873 32.0327 107.656 31.9993C107.44 31.9659 107.266 31.8522 107.134 31.6583C107.002 31.4643 106.96 31.2606 107.008 31.0471C107.047 30.8396 107.164 30.6698 107.358 30.5377L113.19 26.5663C113.94 26.056 114.656 25.8005 115.34 25.7997C116.032 25.7929 116.668 25.979 117.249 26.3579C117.823 26.728 118.324 27.226 118.75 27.852C118.9 28.0724 119.047 28.3535 119.189 28.6953C119.34 29.0311 119.463 29.3539 119.558 29.6636C119.647 29.9645 119.684 30.1904 119.671 30.3415C119.703 30.6163 119.673 30.837 119.58 31.0036C119.481 31.1614 119.34 31.2574 119.157 31.2918C118.903 31.3357 118.703 31.2977 118.556 31.1778C118.41 31.058 118.307 30.877 118.245 30.635C118.211 30.5289 118.167 30.3592 118.111 30.126C118.056 29.8928 117.976 29.6436 117.873 29.3783C117.779 29.1071 117.663 28.8701 117.524 28.6673C117.044 27.9619 116.521 27.544 115.954 27.4135C115.382 27.2741 114.814 27.3966 114.25 27.7808L113.059 28.5913L113.053 28.3828C113.256 28.2831 113.503 28.2378 113.793 28.2468C114.068 28.253 114.36 28.3122 114.669 28.4246C114.977 28.5369 115.284 28.7026 115.588 28.9215C115.877 29.1376 116.123 29.3955 116.327 29.6953C116.754 30.3213 116.981 30.9862 117.008 31.6901C117.027 32.3999 116.867 33.0834 116.527 33.7406C116.178 34.4038 115.651 34.9755 114.946 35.4558C114.241 35.9361 113.52 36.2139 112.784 36.2891C112.039 36.3704 111.348 36.2737 110.709 35.9989C110.055 35.7213 109.521 35.2783 109.107 34.6699ZM110.189 33.643C110.483 34.0751 110.847 34.3821 111.281 34.5643C111.714 34.7464 112.175 34.807 112.663 34.746C113.15 34.685 113.623 34.4984 114.082 34.1862C114.54 33.874 114.887 33.5023 115.122 33.071C115.358 32.6397 115.47 32.1889 115.46 31.7186C115.449 31.2483 115.297 30.7971 115.003 30.3651C114.709 29.9331 114.349 29.623 113.924 29.4348C113.49 29.2527 113.03 29.1921 112.542 29.2531C112.046 29.3201 111.568 29.5097 111.11 29.8219C110.651 30.1341 110.304 30.5059 110.069 30.9372C109.825 31.3745 109.712 31.8253 109.732 32.2896C109.742 32.7599 109.895 33.211 110.189 33.643Z" fill="black"/>
<path d="M113.144 41.3284C112.823 40.6425 112.719 40.0433 112.833 39.5309C112.936 39.023 113.196 38.5836 113.611 38.2126C114.012 37.8365 114.508 37.5106 115.097 37.2348L118.981 35.4175C119.193 35.3181 119.406 35.3069 119.619 35.384C119.817 35.456 119.964 35.5934 120.059 35.7963C120.158 36.0089 120.172 36.2144 120.1 36.413C120.018 36.616 119.871 36.7673 119.659 36.8667L115.789 38.6773C115.442 38.84 115.155 39.033 114.93 39.2562C114.695 39.4839 114.552 39.7569 114.5 40.0753C114.435 40.3885 114.502 40.7577 114.701 41.1828C114.886 41.5789 115.136 41.8861 115.45 42.1042C115.754 42.3268 116.087 42.4596 116.449 42.5024C116.796 42.54 117.144 42.4775 117.491 42.3148L121.361 40.5043C121.573 40.4048 121.786 40.3936 121.999 40.4707C122.197 40.5427 122.344 40.6801 122.439 40.883C122.538 41.0956 122.552 41.3011 122.48 41.4997C122.399 41.7027 122.251 41.854 122.039 41.9535L115.894 44.8286C115.682 44.928 115.476 44.9418 115.278 44.8698C115.069 44.8023 114.916 44.6623 114.816 44.4498C114.721 44.2469 114.715 44.0439 114.796 43.8409C114.864 43.6326 115.004 43.4788 115.216 43.3794L116.028 42.9996L116.295 43.1927C116.051 43.2245 115.784 43.208 115.494 43.1432C115.191 43.0733 114.891 42.9605 114.594 42.8049C114.288 42.6537 114.012 42.4533 113.765 42.2035C113.509 41.9583 113.302 41.6666 113.144 41.3284Z" fill="black"/>
<path d="M123.579 46.2067C123.802 46.1344 124.013 46.1447 124.211 46.2375C124.399 46.3336 124.53 46.4932 124.602 46.7165C124.671 46.9296 124.659 47.1353 124.566 47.3335C124.46 47.5248 124.295 47.6566 124.072 47.7289L117.557 49.8381C117.334 49.9104 117.128 49.8985 116.94 49.8024C116.738 49.6995 116.603 49.5414 116.534 49.3283C116.462 49.1051 116.479 48.8978 116.585 48.7064C116.681 48.5183 116.841 48.3882 117.064 48.3159L123.579 46.2067ZM115.534 49.6688C115.63 49.9631 115.648 50.1926 115.589 50.3574C115.52 50.5255 115.359 50.6506 115.105 50.7327L114.862 50.8116C114.608 50.8937 114.407 50.8801 114.26 50.7709C114.112 50.6617 113.993 50.465 113.901 50.1809C113.802 49.8764 113.787 49.6402 113.856 49.4721C113.915 49.3073 114.066 49.1855 114.31 49.1067L114.553 49.0278C114.817 48.9424 115.023 48.9543 115.17 49.0635C115.314 49.1626 115.436 49.3644 115.534 49.6688Z" fill="black"/>
<path d="M118.124 54.7192L117.288 51.0533C117.241 50.8453 117.275 50.6571 117.389 50.4887C117.491 50.3123 117.646 50.2003 117.854 50.1529C118.052 50.1079 118.235 50.1427 118.403 50.2575C118.569 50.3619 118.676 50.5181 118.724 50.7261L119.559 54.392C119.607 54.6 119.579 54.7922 119.477 54.9686C119.363 55.137 119.206 55.2437 119.009 55.2888C118.801 55.3362 118.614 55.3077 118.448 55.2034C118.279 55.0886 118.172 54.9272 118.124 54.7192ZM115.723 53.5436C115.671 53.3148 115.706 53.1098 115.829 52.9286C115.941 52.7499 116.112 52.6344 116.341 52.5822L123.579 50.932C123.766 50.8893 123.91 50.8237 124.01 50.7352C124.11 50.6468 124.169 50.5458 124.187 50.4323C124.202 50.3084 124.197 50.1893 124.171 50.0749C124.145 49.9605 124.102 49.8664 124.041 49.7927C123.978 49.7086 123.932 49.6041 123.904 49.4793C123.876 49.3545 123.907 49.2271 123.997 49.097C124.088 48.967 124.232 48.8794 124.43 48.8343C124.679 48.7774 124.913 48.8664 125.131 49.1012C125.348 49.3361 125.493 49.6095 125.564 49.9215C125.604 50.0983 125.636 50.3098 125.659 50.5561C125.683 50.8024 125.658 51.0542 125.585 51.3115C125.51 51.5583 125.354 51.7854 125.117 51.9926C124.869 52.2022 124.496 52.3639 123.997 52.4777L116.696 54.1422C116.467 54.1943 116.264 54.1642 116.085 54.0518C115.893 53.9314 115.773 53.762 115.723 53.5436Z" fill="black"/>
<path d="M127.165 57.2017C127.261 58.0818 127.164 58.8649 126.874 59.5511C126.574 60.2384 126.125 60.797 125.528 61.2269C124.919 61.6473 124.201 61.9026 123.374 61.9928C122.441 62.0946 121.626 61.9957 120.928 61.6963C120.218 61.3874 119.655 60.9498 119.239 60.3836C118.813 59.8184 118.563 59.1966 118.489 58.5179C118.432 57.9983 118.484 57.4937 118.646 57.004C118.796 56.5155 119.037 56.0707 119.369 55.6697C119.689 55.2593 120.087 54.9208 120.562 54.6544C121.027 54.3891 121.55 54.2194 122.132 54.1452C122.345 54.1327 122.53 54.1984 122.685 54.3425C122.84 54.4865 122.929 54.6645 122.952 54.8766L123.627 61.064L122.317 61.5931L121.665 55.6126L121.984 55.8835L121.586 55.9269C121.217 55.9886 120.907 56.1458 120.656 56.3985C120.394 56.6524 120.206 56.9518 120.094 57.2967C119.971 57.6428 119.929 57.9961 119.968 58.3566C120.003 58.6747 120.089 58.9765 120.228 59.2618C120.354 59.5377 120.542 59.7802 120.79 59.9892C121.037 60.1876 121.353 60.3355 121.739 60.4328C122.114 60.5208 122.571 60.5353 123.112 60.4763C123.695 60.4127 124.191 60.2352 124.599 59.944C125.007 59.6527 125.311 59.2869 125.51 58.8468C125.698 58.4078 125.765 57.9391 125.711 57.4407C125.668 57.0484 125.595 56.729 125.493 56.4826C125.381 56.2374 125.257 56.0363 125.122 55.8794C124.987 55.7224 124.859 55.5861 124.739 55.4704C124.626 55.3218 124.561 55.1679 124.544 55.0089C124.523 54.818 124.575 54.6514 124.699 54.5091C124.812 54.368 124.959 54.2876 125.139 54.268C125.373 54.2425 125.597 54.3361 125.814 54.5485C126.121 54.8048 126.408 55.1758 126.675 55.6617C126.942 56.1369 127.105 56.6503 127.165 57.2017Z" fill="black"/>
<path d="M127.435 70.0405C127.426 70.2643 127.343 70.4529 127.187 70.6064C127.021 70.7488 126.821 70.815 126.586 70.8051L116.387 70.3709C116.153 70.3609 115.964 70.2781 115.821 70.1226C115.668 69.9559 115.597 69.7607 115.606 69.5369C115.616 69.3024 115.704 69.114 115.87 68.9716C116.026 68.8288 116.221 68.7623 116.455 68.7723L126.654 69.2065C126.889 69.2165 127.083 69.2995 127.236 69.4555C127.379 69.611 127.445 69.806 127.435 70.0405ZM119.217 64.4699C119.226 64.2674 119.318 64.0952 119.495 63.9532C119.672 63.8113 119.846 63.744 120.016 63.7512C120.229 63.7603 120.422 63.8699 120.595 64.0801L124.858 69.2742L123.017 69.2598L119.448 65.0722C119.284 64.8945 119.207 64.6937 119.217 64.4699ZM127.649 64.6367C127.64 64.8605 127.541 65.0485 127.353 65.2006L123.844 68.2541L122.777 66.9916L126.283 64.018C126.471 63.8552 126.677 63.7786 126.901 63.7881C127.135 63.7981 127.323 63.9022 127.464 64.1003C127.595 64.2874 127.657 64.4662 127.649 64.6367Z" fill="black"/>
<path d="M126.502 77.1936C126.461 77.4247 126.354 77.6006 126.181 77.7215C125.997 77.8405 125.79 77.8795 125.559 77.8384L118.88 76.651C118.649 76.6099 118.473 76.5028 118.352 76.3296C118.22 76.1546 118.175 75.9516 118.216 75.7205C118.255 75.5 118.367 75.3302 118.551 75.2112C118.726 75.0798 118.929 75.0346 119.16 75.0757L120.924 75.3894L120.219 75.4265C119.939 75.2902 119.689 75.1156 119.467 74.9028C119.246 74.6794 119.063 74.4302 118.917 74.155C118.771 73.8799 118.672 73.5859 118.619 73.2732C118.568 72.95 118.571 72.6256 118.629 72.3C118.678 72.027 118.793 71.8037 118.976 71.6303C119.158 71.4569 119.36 71.3898 119.58 71.4291C119.864 71.4795 120.061 71.5903 120.171 71.7616C120.271 71.9311 120.305 72.105 120.274 72.2836C120.246 72.4411 120.187 72.5878 120.098 72.7236C119.998 72.8576 119.931 73.0243 119.895 73.2238C119.856 73.4444 119.874 73.6804 119.948 73.932C120.022 74.1836 120.158 74.4245 120.356 74.6546C120.543 74.8828 120.778 75.0818 121.062 75.2514C121.348 75.4106 121.68 75.5238 122.058 75.591L125.839 76.2631C126.07 76.3042 126.25 76.4175 126.38 76.603C126.501 76.7762 126.541 76.9731 126.502 77.1936Z" fill="black"/>
<path d="M118.003 77.1555C118.072 76.9313 118.206 76.7716 118.403 76.6763C118.59 76.5778 118.795 76.5633 119.019 76.6327L125.622 78.6775C125.846 78.7469 126.012 78.8766 126.121 79.0666C126.22 79.2534 126.234 79.4589 126.165 79.683C126.098 79.897 125.97 80.0583 125.78 80.167C125.583 80.2623 125.373 80.2753 125.148 80.2058L124.048 79.865L124.193 79.5583C124.377 79.6151 124.557 79.7546 124.734 79.9769C124.914 80.1889 125.071 80.4555 125.206 80.7765C125.331 81.0943 125.411 81.4485 125.447 81.8391C125.472 82.2266 125.423 82.619 125.3 83.0164C125.082 83.7195 124.708 84.296 124.178 84.7459C123.638 85.1927 123.001 85.4814 122.268 85.6118C121.536 85.7422 120.767 85.6828 119.962 85.4335C119.137 85.1779 118.464 84.7908 117.943 84.2723C117.412 83.7506 117.054 83.1594 116.868 82.4987C116.684 81.8279 116.699 81.1511 116.91 80.4684C117.046 80.0303 117.242 79.6499 117.498 79.3273C117.757 78.9944 118.042 78.7252 118.351 78.5195C118.66 78.3138 118.965 78.1791 119.264 78.1153C119.555 78.0382 119.813 78.0344 120.038 78.1038L119.937 78.5918L118.546 78.1611C118.332 78.0948 118.171 77.9667 118.062 77.7767C117.956 77.5765 117.937 77.3695 118.003 77.1555ZM123.946 82.4128C124.094 81.9339 124.103 81.4732 123.972 81.0307C123.841 80.5881 123.598 80.2003 123.243 79.8671C122.879 79.5308 122.436 79.2822 121.917 79.1212C121.387 78.9571 120.881 78.9123 120.401 78.9867C119.92 79.0611 119.5 79.2439 119.142 79.535C118.784 79.826 118.531 80.211 118.382 80.6899C118.237 81.1586 118.23 81.6142 118.361 82.0568C118.495 82.4891 118.738 82.877 119.09 83.2203C119.444 83.5535 119.886 83.8021 120.416 83.9662C120.936 84.1271 121.441 84.172 121.932 84.1007C122.416 84.0161 122.836 83.8334 123.191 83.5525C123.549 83.2614 123.801 82.8815 123.946 82.4128Z" fill="black"/>
<path d="M112.299 91.7514C112.674 91.0572 113.137 90.6165 113.688 90.4291C114.228 90.2367 114.823 90.237 115.47 90.4299L115.278 90.6169L115.106 90.3965C114.928 90.1426 114.783 89.8276 114.672 89.4517C114.555 89.0613 114.511 88.6494 114.54 88.216C114.559 87.7776 114.675 87.3613 114.888 86.9674C115.239 86.3201 115.651 85.8944 116.126 85.6903C116.591 85.4811 117.096 85.4331 117.641 85.5463C118.177 85.6545 118.731 85.8634 119.303 86.1731L123.032 88.1917C123.238 88.3034 123.376 88.463 123.445 88.6705C123.506 88.8729 123.48 89.0773 123.368 89.2837C123.262 89.4807 123.105 89.614 122.897 89.6836C122.685 89.7387 122.476 89.7104 122.27 89.5987L118.555 87.5878C118.227 87.4101 117.901 87.2945 117.578 87.241C117.261 87.1782 116.961 87.2162 116.68 87.355C116.394 87.4793 116.147 87.7338 115.939 88.1184C115.741 88.4842 115.648 88.8582 115.659 89.2404C115.666 89.6082 115.763 89.9454 115.948 90.2521C116.134 90.5589 116.391 90.8011 116.719 90.9788L120.434 92.9897C120.64 93.1014 120.778 93.261 120.848 93.4685C120.908 93.671 120.883 93.8754 120.771 94.0817C120.659 94.2881 120.502 94.4214 120.3 94.4816C120.088 94.5368 119.879 94.5085 119.672 94.3968L115.944 92.3783C115.615 92.2005 115.29 92.0849 114.967 92.0315C114.649 91.9686 114.352 92.0019 114.076 92.1314C113.8 92.2608 113.558 92.5178 113.349 92.9024C113.151 93.2682 113.056 93.635 113.063 94.0027C113.07 94.3705 113.166 94.7077 113.352 95.0144C113.543 95.3118 113.803 95.5493 114.131 95.7271L117.86 97.7456C118.066 97.8573 118.201 98.0216 118.266 98.2385C118.326 98.4409 118.303 98.6406 118.196 98.8376C118.085 99.0439 117.927 99.1772 117.725 99.2375C117.513 99.2926 117.304 99.2643 117.098 99.1526L111.132 95.923C110.926 95.8113 110.792 95.6542 110.732 95.4518C110.662 95.2443 110.683 95.0374 110.795 94.831C110.902 94.634 111.061 94.5079 111.273 94.4528C111.48 94.3832 111.687 94.4042 111.894 94.5159L112.724 94.9654L112.734 95.3165C112.563 95.1391 112.41 94.917 112.276 94.6501C112.141 94.3832 112.046 94.089 111.99 93.7674C111.938 93.4364 111.933 93.0997 111.972 92.7573C112.012 92.415 112.121 92.0797 112.299 91.7514Z" fill="black"/>
<path d="M111.191 108.139C110.573 108.774 109.907 109.198 109.194 109.411C108.472 109.616 107.756 109.626 107.044 109.439C106.332 109.238 105.678 108.847 105.082 108.266C104.41 107.611 103.967 106.92 103.753 106.191C103.54 105.447 103.519 104.734 103.691 104.053C103.855 103.365 104.176 102.776 104.652 102.287C105.016 101.912 105.439 101.631 105.919 101.444C106.392 101.249 106.888 101.152 107.409 101.152C107.929 101.138 108.443 101.229 108.951 101.426C109.452 101.615 109.916 101.911 110.343 102.312C110.489 102.469 110.555 102.653 110.543 102.864C110.531 103.075 110.45 103.258 110.301 103.41L105.96 107.87L104.717 107.196L108.914 102.886L108.908 103.305L108.622 103.026C108.339 102.78 108.021 102.641 107.666 102.608C107.303 102.568 106.953 102.614 106.615 102.747C106.27 102.872 105.971 103.065 105.718 103.325C105.495 103.554 105.317 103.813 105.185 104.101C105.053 104.374 104.985 104.673 104.982 104.998C104.986 105.314 105.074 105.653 105.245 106.012C105.415 106.357 105.695 106.719 106.085 107.099C106.505 107.508 106.958 107.777 107.442 107.907C107.927 108.036 108.402 108.037 108.868 107.91C109.326 107.776 109.73 107.529 110.08 107.17C110.355 106.887 110.556 106.628 110.681 106.392C110.798 106.15 110.874 105.926 110.909 105.722C110.944 105.518 110.968 105.333 110.981 105.166C111.024 104.985 111.101 104.837 111.213 104.722C111.347 104.585 111.508 104.518 111.697 104.523C111.878 104.521 112.033 104.583 112.163 104.709C112.331 104.873 112.402 105.106 112.376 105.408C112.374 105.808 112.271 106.266 112.066 106.781C111.869 107.289 111.578 107.742 111.191 108.139Z" fill="black"/>
<path d="M98.9871 107.6C99.5911 107.144 100.156 106.917 100.68 106.922C101.199 106.917 101.683 107.08 102.132 107.408C102.583 107.722 103.005 108.139 103.398 108.658L105.985 112.078C106.126 112.265 106.181 112.47 106.15 112.694C106.121 112.904 106.018 113.076 105.839 113.211C105.652 113.353 105.454 113.409 105.244 113.38C105.029 113.342 104.85 113.23 104.709 113.043L102.131 109.636C101.9 109.329 101.651 109.089 101.386 108.915C101.114 108.733 100.818 108.65 100.495 108.666C100.175 108.668 99.8283 108.81 99.454 109.093C99.1052 109.357 98.8569 109.665 98.709 110.018C98.5546 110.362 98.4942 110.715 98.5277 111.078C98.5633 111.425 98.6969 111.752 98.9285 112.058L101.506 115.465C101.647 115.653 101.702 115.858 101.671 116.082C101.642 116.292 101.539 116.464 101.36 116.599C101.173 116.74 100.975 116.797 100.765 116.768C100.55 116.73 100.371 116.618 100.23 116.431L96.1371 111.02C95.9955 110.833 95.9392 110.635 95.9682 110.426C95.9908 110.208 96.0957 110.028 96.2828 109.887C96.4615 109.752 96.6586 109.703 96.8742 109.74C97.0919 109.763 97.2716 109.868 97.4131 110.055L97.9536 110.77L97.8205 111.071C97.7385 110.839 97.699 110.574 97.702 110.278C97.7072 109.966 97.7549 109.649 97.8453 109.327C97.9293 108.996 98.0678 108.684 98.2607 108.391C98.4472 108.089 98.6894 107.826 98.9871 107.6Z" fill="black"/>
<path d="M96.3907 118.823C96.5079 119.026 96.5418 119.235 96.4924 119.448C96.4376 119.652 96.3086 119.812 96.1053 119.93C95.9112 120.042 95.7076 120.073 95.4944 120.023C95.2851 119.959 95.1218 119.826 95.0046 119.622L91.584 113.69C91.4668 113.487 91.4355 113.283 91.4903 113.079C91.549 112.86 91.6754 112.695 91.8694 112.583C92.0727 112.466 92.279 112.44 92.4883 112.504C92.6923 112.558 92.8529 112.687 92.9701 112.891L96.3907 118.823ZM91.3281 111.676C91.0601 111.831 90.8394 111.897 90.666 111.874C90.4873 111.841 90.3313 111.709 90.1981 111.478L90.0702 111.257C89.937 111.026 89.9085 110.827 89.9845 110.66C90.0606 110.493 90.228 110.335 90.4868 110.185C90.764 110.026 90.992 109.962 91.1707 109.994C91.3441 110.017 91.4948 110.14 91.6226 110.362L91.7505 110.583C91.889 110.824 91.9203 111.027 91.8442 111.194C91.7773 111.356 91.6053 111.517 91.3281 111.676Z" fill="black"/>
<path d="M91.7536 121.296C91.8523 121.509 91.8627 121.722 91.7848 121.934C91.7121 122.132 91.5742 122.279 91.371 122.373C91.1677 122.467 90.9621 122.48 90.7542 122.412C90.5514 122.329 90.4007 122.182 90.302 121.969L86.0086 112.708C85.9099 112.495 85.9017 112.287 85.984 112.084C86.0619 111.872 86.2025 111.718 86.4057 111.624C86.6186 111.526 86.8216 111.52 87.0147 111.606C87.213 111.679 87.3615 111.822 87.4602 112.035L91.7536 121.296Z" fill="black"/>
<path d="M83.181 116.46C83.9024 116.23 84.5099 116.203 85.0036 116.381C85.4941 116.549 85.8967 116.863 86.2116 117.322C86.5333 117.768 86.7933 118.301 86.9915 118.92L88.2978 123.005C88.3693 123.228 88.3532 123.44 88.2495 123.642C88.1528 123.829 87.9977 123.957 87.7844 124.026C87.5609 124.097 87.3552 124.084 87.1675 123.988C86.9765 123.881 86.8453 123.716 86.7738 123.492L85.4725 119.423C85.3555 119.057 85.2007 118.748 85.0081 118.496C84.8123 118.234 84.5598 118.058 84.2505 117.966C83.9482 117.861 83.5736 117.88 83.1265 118.023C82.71 118.156 82.3735 118.365 82.117 118.648C81.8573 118.922 81.6831 119.235 81.5945 119.588C81.5127 119.928 81.5304 120.281 81.6473 120.646L82.9487 124.715C83.0202 124.939 83.0041 125.151 82.9004 125.352C82.8037 125.54 82.6486 125.668 82.4353 125.736C82.2118 125.808 82.0062 125.795 81.8184 125.698C81.6275 125.592 81.4962 125.426 81.4247 125.203L79.3582 118.741C79.2867 118.518 79.2993 118.312 79.3961 118.124C79.4895 117.927 79.6481 117.792 79.8716 117.72C80.0849 117.652 80.2871 117.671 80.4781 117.778C80.6759 117.872 80.8106 118.03 80.8821 118.254L81.1551 119.107L80.9295 119.347C80.9291 119.101 80.9796 118.839 81.0808 118.56C81.1889 118.268 81.3391 117.985 81.5314 117.71C81.7204 117.426 81.9545 117.177 82.2337 116.965C82.5097 116.742 82.8254 116.574 83.181 116.46Z" fill="black"/>
<path d="M79.1989 122.487C79.3259 123.331 79.254 124.107 78.9833 124.817C78.7109 125.516 78.2861 126.097 77.7088 126.562C77.1315 127.026 76.4473 127.318 75.6562 127.437C74.8651 127.556 74.1253 127.479 73.4369 127.205C72.7484 126.931 72.1659 126.501 71.6894 125.914C71.2218 125.316 70.9245 124.595 70.7975 123.751C70.6689 122.897 70.7408 122.12 71.0132 121.421C71.2945 120.71 71.7238 120.122 72.3011 119.658C72.8768 119.183 73.5602 118.886 74.3513 118.767C75.1424 118.648 75.883 118.73 76.573 119.015C77.2614 119.289 77.8394 119.725 78.307 120.323C78.773 120.911 79.0703 121.632 79.1989 122.487ZM77.6167 122.725C77.5294 122.145 77.338 121.661 77.0424 121.274C76.7453 120.877 76.3781 120.587 75.9407 120.404C75.5124 120.21 75.0556 120.149 74.5704 120.222C74.0852 120.295 73.6612 120.489 73.2985 120.802C72.9342 121.105 72.6685 121.49 72.5016 121.958C72.333 122.414 72.2924 122.933 72.3797 123.513C72.4638 124.072 72.6545 124.55 72.9516 124.948C73.2487 125.345 73.616 125.635 74.0533 125.818C74.4906 126 74.9519 126.055 75.4371 125.981C75.9223 125.908 76.3418 125.721 76.6955 125.42C77.0599 125.117 77.3255 124.732 77.4925 124.264C77.6594 123.797 77.7009 123.284 77.6167 122.725Z" fill="black"/>
<path d="M63.8781 119.787C64.1118 119.808 64.2957 119.905 64.4299 120.078C64.5651 120.24 64.622 120.438 64.6008 120.672L63.9768 127.524C63.8916 128.458 63.6419 129.201 63.2275 129.753C62.8238 130.305 62.307 130.686 61.6774 130.897C61.0573 131.119 60.3702 131.196 59.616 131.127C59.2336 131.092 58.8546 131.02 58.4789 130.911C58.1023 130.812 57.7976 130.688 57.5649 130.538C57.3206 130.398 57.1531 130.239 57.0623 130.059C56.9716 129.879 56.9726 129.692 57.0653 129.497C57.1629 129.249 57.3063 129.085 57.4956 129.006C57.684 128.937 57.8703 128.949 58.0548 129.041C58.2286 129.131 58.4589 129.249 58.7457 129.393C59.0325 129.537 59.3671 129.626 59.7495 129.661C60.27 129.708 60.7186 129.664 61.0953 129.526C61.4719 129.389 61.767 129.148 61.9804 128.804C62.2045 128.46 62.3427 128.001 62.395 127.428L62.4951 126.328L62.7152 126.734C62.5133 127.069 62.2636 127.341 61.9662 127.549C61.6687 127.758 61.3229 127.908 60.9289 128.001C60.5455 128.095 60.1254 128.121 59.6686 128.079C59.0844 128.026 58.5914 127.852 58.1897 127.559C57.7996 127.256 57.5138 126.865 57.3324 126.388C57.1518 125.901 57.0887 125.359 57.1429 124.764L57.5738 120.032C57.5951 119.798 57.6869 119.614 57.8492 119.479C58.0124 119.333 58.2108 119.271 58.4445 119.292C58.6676 119.312 58.8463 119.409 58.9805 119.582C59.1263 119.745 59.1885 119.943 59.1672 120.177L58.7754 124.479C58.7116 125.18 58.8187 125.71 59.0968 126.067C59.3758 126.414 59.8181 126.615 60.4236 126.67C60.8272 126.707 61.1855 126.653 61.4984 126.511C61.8113 126.368 62.0663 126.155 62.2634 125.873C62.4614 125.581 62.5788 125.233 62.6155 124.829L63.0073 120.527C63.0286 120.293 63.1204 120.109 63.2827 119.973C63.4565 119.829 63.655 119.766 63.8781 119.787Z" fill="black"/>
<path d="M50.703 126.471C50.4742 126.419 50.3036 126.303 50.1912 126.125C50.0812 125.935 50.0522 125.726 50.1044 125.498L51.6128 118.883C51.6649 118.655 51.7804 118.484 51.9592 118.372C52.1404 118.249 52.3454 118.213 52.5742 118.266C52.7926 118.315 52.9568 118.435 53.0668 118.624C53.1896 118.805 53.2249 119.01 53.1727 119.239L52.7743 120.986L52.7713 120.28C52.9209 120.008 53.1073 119.766 53.3306 119.554C53.5643 119.345 53.8221 119.174 54.104 119.041C54.3859 118.909 54.6843 118.823 54.9992 118.786C55.3245 118.751 55.6484 118.77 55.9707 118.843C56.2411 118.905 56.4585 119.031 56.6229 119.222C56.7873 119.412 56.8446 119.617 56.7948 119.835C56.7308 120.116 56.6105 120.308 56.4341 120.41C56.2601 120.501 56.0846 120.527 55.9078 120.486C55.7518 120.451 55.6082 120.385 55.4768 120.29C55.3478 120.184 55.1845 120.108 54.9869 120.063C54.7685 120.013 54.5319 120.02 54.277 120.082C54.0221 120.144 53.775 120.268 53.5356 120.454C53.2986 120.63 53.0886 120.856 52.9054 121.131C52.7326 121.409 52.6035 121.735 52.5182 122.109L51.6644 125.853C51.6122 126.082 51.4903 126.257 51.2988 126.377C51.12 126.49 50.9214 126.521 50.703 126.471Z" fill="black"/>
<path d="M45.3807 125.147C44.5486 124.845 43.8887 124.412 43.4011 123.849C42.9171 123.276 42.614 122.626 42.4917 121.901C42.3831 121.169 42.4709 120.412 42.7551 119.631C43.0758 118.748 43.5245 118.06 44.1012 117.566C44.6917 117.066 45.3327 116.754 46.0244 116.631C46.7197 116.498 47.3882 116.548 48.0298 116.781C48.521 116.959 48.9507 117.229 49.319 117.59C49.6908 117.941 49.9834 118.353 50.1968 118.828C50.4238 119.297 50.5519 119.803 50.5812 120.347C50.6141 120.881 50.5353 121.425 50.345 121.98C50.2621 122.177 50.1218 122.313 49.924 122.389C49.7263 122.465 49.5272 122.466 49.3267 122.393L43.477 120.267L43.5806 118.858L49.2348 120.913L48.8507 121.08L48.9873 120.704C49.0948 120.346 49.0907 119.998 48.9749 119.661C48.8627 119.314 48.6767 119.013 48.417 118.76C48.1608 118.497 47.8624 118.303 47.5215 118.179C47.2207 118.07 46.9118 118.014 46.5947 118.013C46.2912 118.005 45.9909 118.066 45.6939 118.196C45.4068 118.33 45.1344 118.549 44.8765 118.852C44.6324 119.149 44.4174 119.554 44.2315 120.065C44.0311 120.616 43.9715 121.139 44.0527 121.634C44.1339 122.129 44.3281 122.563 44.6353 122.936C44.9461 123.298 45.3371 123.565 45.8083 123.736C46.1792 123.871 46.4978 123.947 46.7639 123.964C47.0336 123.972 47.2687 123.949 47.4692 123.897C47.6697 123.845 47.8483 123.791 48.005 123.735C48.1882 123.699 48.355 123.709 48.5053 123.763C48.6858 123.829 48.8125 123.949 48.8854 124.123C48.962 124.287 48.9693 124.454 48.9074 124.624C48.8272 124.845 48.6441 125.005 48.358 125.106C47.9925 125.268 47.5328 125.362 46.9787 125.387C46.4347 125.417 45.902 125.337 45.3807 125.147Z" fill="black"/>
<path d="M33.7417 119.722C33.5451 119.615 33.4124 119.457 33.3435 119.249C33.2891 119.037 33.3182 118.828 33.4306 118.623L38.3224 109.663C38.4348 109.457 38.5924 109.324 38.795 109.265C39.0121 109.201 39.219 109.223 39.4156 109.33C39.6216 109.443 39.7517 109.605 39.8061 109.817C39.8656 110.019 39.8392 110.224 39.7267 110.43L34.8349 119.389C34.7225 119.595 34.5624 119.733 34.3546 119.801C34.152 119.861 33.9477 119.835 33.7417 119.722ZM42.3682 114.807C42.5461 114.904 42.6597 115.063 42.7089 115.285C42.7582 115.506 42.742 115.691 42.6602 115.841C42.558 116.029 42.3745 116.153 42.1097 116.215L35.5673 117.747L36.3929 116.102L41.7259 114.748C41.9575 114.68 42.1716 114.699 42.3682 114.807ZM38.496 122.3C38.2994 122.192 38.1743 122.021 38.1208 121.785L36.93 117.288L38.534 116.888L39.6546 121.346C39.7175 121.587 39.6953 121.806 39.5879 122.003C39.4755 122.208 39.2992 122.331 39.0591 122.37C38.8335 122.405 38.6458 122.381 38.496 122.3Z" fill="black"/>
<path d="M36.2239 111.452C36.4106 111.594 36.5148 111.774 36.5367 111.992C36.565 112.201 36.5081 112.399 36.3659 112.586L32.1778 118.085C32.0356 118.271 31.8566 118.383 31.6409 118.42C31.4316 118.448 31.2336 118.391 31.047 118.249C30.8688 118.113 30.7613 117.938 30.7245 117.722C30.7026 117.504 30.7628 117.302 30.905 117.115L31.603 116.199L31.8412 116.441C31.7248 116.593 31.5319 116.715 31.2625 116.804C31.0015 116.901 30.6971 116.957 30.3492 116.974C30.0078 116.982 29.6476 116.935 29.2686 116.834C28.8961 116.725 28.5443 116.544 28.2134 116.292C27.6279 115.846 27.2149 115.297 26.9744 114.644C26.7403 113.984 26.6879 113.287 26.8171 112.554C26.9462 111.821 27.2661 111.119 27.7767 110.449C28.3002 109.761 28.8949 109.262 29.5606 108.951C30.2329 108.632 30.9112 108.499 31.5957 108.551C32.2886 108.609 32.9193 108.855 33.4879 109.288C33.8527 109.566 34.1427 109.88 34.3577 110.232C34.5812 110.59 34.7364 110.949 34.8233 111.311C34.9102 111.672 34.9323 112.004 34.8895 112.306C34.8617 112.607 34.7767 112.851 34.6345 113.037L34.2108 112.775L35.093 111.617C35.2288 111.438 35.4045 111.331 35.6202 111.294C35.8445 111.264 36.0457 111.316 36.2239 111.452ZM29.2453 115.228C29.6441 115.531 30.0738 115.698 30.5344 115.727C30.995 115.756 31.4427 115.661 31.8774 115.442C32.3185 115.215 32.7039 114.885 33.0336 114.453C33.3696 114.011 33.5853 113.552 33.6806 113.075C33.7759 112.598 33.7483 112.141 33.5979 111.705C33.4476 111.268 33.173 110.898 32.7742 110.595C32.3838 110.297 31.9583 110.134 31.4977 110.105C31.0456 110.083 30.598 110.177 30.1548 110.39C29.7201 110.608 29.3347 110.938 28.9986 111.379C28.669 111.812 28.4533 112.271 28.3516 112.757C28.2648 113.241 28.2924 113.697 28.4342 114.127C28.5846 114.564 28.855 114.93 29.2453 115.228Z" fill="black"/>
<path d="M27.5761 104.325C28.0952 104.862 28.4208 105.467 28.5528 106.14C28.6924 106.822 28.6431 107.515 28.405 108.22C28.1746 108.918 27.7527 109.563 27.1393 110.156C26.526 110.75 25.8629 111.153 25.1503 111.368C24.4376 111.582 23.743 111.616 23.0666 111.469C22.3978 111.314 21.8113 110.976 21.307 110.455C21.0252 110.164 20.8042 109.843 20.6441 109.494C20.4917 109.136 20.3919 108.788 20.3447 108.448C20.3053 108.1 20.3068 107.779 20.3495 107.486C20.3995 107.2 20.4825 106.971 20.5985 106.8L21.0484 106.966L20.0478 107.933C19.8868 108.089 19.6932 108.165 19.4669 108.161C19.2558 108.158 19.0723 108.076 18.9166 107.915C18.7534 107.746 18.6736 107.556 18.6771 107.345C18.6807 107.134 18.7668 106.946 18.9354 106.783L26.365 99.5976C26.5337 99.4344 26.7236 99.3546 26.9347 99.3581C27.1536 99.3543 27.3445 99.4366 27.5077 99.6053C27.6634 99.7663 27.7357 99.9561 27.7245 100.175C27.7284 100.394 27.646 100.585 27.4773 100.748L24.2456 103.873L24.1711 103.589C24.339 103.471 24.559 103.4 24.831 103.374C25.1107 103.341 25.4123 103.346 25.736 103.389C26.067 103.44 26.3897 103.543 26.7039 103.699C27.0332 103.856 27.3239 104.064 27.5761 104.325ZM26.3956 105.222C26.0397 104.854 25.6362 104.621 25.1852 104.523C24.7417 104.432 24.2886 104.462 23.8259 104.613C23.3709 104.756 22.9441 105.021 22.5454 105.407C22.1467 105.792 21.8605 106.217 21.6867 106.682C21.5207 107.14 21.4755 107.591 21.551 108.038C21.6339 108.492 21.8534 108.903 22.2093 109.271C22.5579 109.631 22.9539 109.856 23.3975 109.947C23.841 110.037 24.298 110.003 24.7683 109.845C25.2461 109.695 25.6805 109.43 26.0715 109.052C26.4702 108.667 26.745 108.245 26.896 107.787C27.062 107.33 27.1073 106.878 27.0317 106.432C26.9562 105.985 26.7442 105.582 26.3956 105.222Z" fill="black"/>
<path d="M19.099 93.6485C19.3303 94.0445 19.4783 94.446 19.5429 94.8529C19.6076 95.2598 19.6086 95.6422 19.5458 96C19.4975 96.3617 19.4079 96.6735 19.2767 96.9353C19.1455 97.1972 19.0016 97.3739 18.845 97.4653L18.6456 97.1556L19.751 96.5101C19.9444 96.3972 20.1479 96.3649 20.3614 96.4131C20.5748 96.4614 20.7407 96.5869 20.8591 96.7895C20.9774 96.9922 21.0051 97.1983 20.9423 97.4079C20.8886 97.6122 20.7605 97.7735 20.5578 97.8918L14.4646 101.45C13.6816 101.907 12.9493 102.112 12.2674 102.066C11.5764 102.025 10.9544 101.795 10.4013 101.377C9.85372 100.968 9.38896 100.436 9.00706 99.7824C8.87259 99.5521 8.74616 99.2616 8.62776 98.9107C8.50014 98.5653 8.3998 98.2348 8.32671 97.9193C8.25901 97.6129 8.23702 97.3849 8.26075 97.2352C8.24758 96.9588 8.29316 96.7407 8.39751 96.5809C8.50724 96.4304 8.65462 96.3443 8.83965 96.3228C9.09608 96.2965 9.29305 96.3483 9.43054 96.478C9.56804 96.6077 9.65911 96.7954 9.70375 97.041C9.72991 97.1493 9.76262 97.3216 9.80188 97.5581C9.84115 97.7946 9.90307 98.0487 9.98765 98.3204C10.063 98.5976 10.1626 98.8421 10.2863 99.0539C10.7166 99.7908 11.2097 100.244 11.7657 100.413C12.327 100.592 12.9025 100.509 13.492 100.165L14.7355 99.4389L14.7275 99.6474C14.5179 99.7327 14.2688 99.7608 13.9801 99.7318C13.706 99.7066 13.4188 99.6272 13.1185 99.4938C12.8182 99.3603 12.5241 99.1739 12.2361 98.9344C11.9626 98.6988 11.7345 98.4245 11.5516 98.1113C11.1697 97.4573 10.9893 96.7782 11.0105 96.0742C11.0409 95.3647 11.2483 94.6939 11.6327 94.0618C12.0263 93.4244 12.5915 92.8905 13.3284 92.4602C14.0653 92.0299 14.8034 91.8027 15.5428 91.7785C16.2914 91.749 16.9748 91.8934 17.593 92.2118C18.2259 92.534 18.7278 93.0129 19.099 93.6485ZM17.9489 94.598C17.6853 94.1466 17.3435 93.8151 16.9234 93.6034C16.5033 93.3916 16.048 93.2993 15.5573 93.3264C15.0667 93.3535 14.5819 93.5069 14.1029 93.7866C13.624 94.0663 13.2521 94.4131 12.9874 94.8271C12.7227 95.2411 12.5793 95.683 12.5573 96.1529C12.5352 96.6228 12.656 97.0835 12.9195 97.5348C13.1831 97.9862 13.5203 98.3204 13.9312 98.5375C14.3513 98.7492 14.8066 98.8415 15.2972 98.8144C15.7971 98.7819 16.2865 98.6259 16.7654 98.3462C17.2444 98.0665 17.6163 97.7196 17.881 97.3057C18.1549 96.8863 18.2983 96.4444 18.3111 95.9799C18.3332 95.51 18.2124 95.0493 17.9489 94.598Z" fill="black"/>
<path d="M15.5334 86.7265C15.8061 87.4331 15.8681 88.038 15.7194 88.5413C15.5806 89.0408 15.2912 89.4612 14.8513 89.8025C14.4251 90.1499 13.9085 90.4408 13.3015 90.6751L9.30115 92.2191C9.08223 92.3036 8.86932 92.3 8.66244 92.2084C8.46935 92.1228 8.33248 91.9756 8.25182 91.7666C8.16732 91.5477 8.16785 91.3417 8.25339 91.1486C8.34888 90.9517 8.50609 90.8109 8.72502 90.7264L12.7105 89.1882C13.0687 89.0499 13.3679 88.8772 13.6082 88.6702C13.8583 88.4593 14.02 88.1968 14.0931 87.8827C14.1801 87.5748 14.139 87.2018 13.97 86.764C13.8126 86.356 13.5847 86.0323 13.2866 85.793C12.9983 85.5498 12.6753 85.3943 12.3176 85.3266C11.9737 85.265 11.6226 85.3033 11.2644 85.4416L7.27893 86.9798C7.06 87.0643 6.8471 87.0608 6.64022 86.9691C6.44713 86.8836 6.31026 86.7363 6.2296 86.5273C6.1451 86.3084 6.14562 86.1024 6.23116 85.9093C6.32666 85.7124 6.48387 85.5717 6.7028 85.4872L13.0317 83.0444C13.2507 82.9599 13.4567 82.9604 13.6497 83.0459C13.8528 83.1276 13.9966 83.2779 14.0811 83.4969C14.1617 83.7058 14.1543 83.9088 14.0588 84.1057C13.9771 84.3088 13.8268 84.4525 13.6079 84.537L12.772 84.8597L12.519 84.6486C12.7648 84.6338 13.0298 84.6687 13.314 84.7533C13.6121 84.8441 13.9036 84.9774 14.1887 85.1532C14.4837 85.3252 14.7455 85.5443 14.9741 85.8105C15.2125 86.0729 15.399 86.3782 15.5334 86.7265Z" fill="black"/>
<path d="M5.46096 81.1375C5.23323 81.1941 5.02371 81.1693 4.83239 81.063C4.65143 80.9542 4.53262 80.7859 4.47597 80.5581C4.4219 80.3408 4.44801 80.1364 4.55431 79.9451C4.67353 79.7616 4.847 79.6415 5.07473 79.5848L11.7202 77.9317C11.9479 77.8751 12.1523 77.9012 12.3332 78.0101C12.5271 78.1267 12.6511 78.2937 12.7052 78.5111C12.7618 78.7388 12.7306 78.9445 12.6113 79.128C12.5025 79.309 12.3342 79.4278 12.1064 79.4844L5.46096 81.1375ZM13.7261 78.2407C13.6514 77.9405 13.6491 77.7102 13.7192 77.5499C13.7995 77.387 13.9691 77.2734 14.2279 77.209L14.4763 77.1472C14.7351 77.0828 14.9343 77.1102 15.0739 77.2294C15.2134 77.3486 15.3192 77.5531 15.3913 77.8429C15.4686 78.1535 15.467 78.3902 15.3866 78.5531C15.3166 78.7134 15.1573 78.8244 14.9089 78.8862L14.6605 78.948C14.3914 79.015 14.187 78.9889 14.0475 78.8697C13.9105 78.7609 13.8033 78.5512 13.7261 78.2407Z" fill="black"/>
<path d="M11.4923 73.0231L12.0723 76.7381C12.1052 76.9489 12.0586 77.1343 11.9324 77.2943C11.8185 77.4633 11.6561 77.5642 11.4453 77.5971C11.2451 77.6284 11.0649 77.5809 10.9049 77.4548C10.7465 77.3391 10.6508 77.1759 10.6179 76.9652L10.0379 73.2502C10.005 73.0394 10.0456 72.8495 10.1595 72.6806C10.2857 72.5205 10.4489 72.4249 10.6491 72.3936C10.8599 72.3607 11.0445 72.4021 11.2029 72.5177C11.3629 72.6439 11.4594 72.8123 11.4923 73.0231ZM13.8066 74.3622C13.8428 74.594 13.7933 74.7961 13.6583 74.9683C13.5338 75.1389 13.3556 75.2423 13.1237 75.2784L5.78859 76.4236C5.59888 76.4532 5.451 76.5087 5.34495 76.59C5.23889 76.6713 5.17301 76.768 5.14731 76.88C5.12325 77.0025 5.12027 77.1217 5.13837 77.2376C5.15647 77.3536 5.19318 77.4504 5.24849 77.5281C5.30546 77.6164 5.34381 77.7238 5.36356 77.8502C5.3833 77.9767 5.34343 78.1017 5.24396 78.2252C5.14448 78.3487 4.99462 78.426 4.79438 78.4573C4.54145 78.4968 4.31455 78.3919 4.11368 78.1425C3.91282 77.8932 3.78771 77.6104 3.73835 77.2943C3.71038 77.1151 3.69328 76.9019 3.68705 76.6545C3.68083 76.4072 3.72285 76.1577 3.81312 75.9061C3.90504 75.6651 4.07649 75.4494 4.32747 75.259C4.58898 75.0671 4.97268 74.9316 5.47855 74.8526L12.8769 73.6976C13.1088 73.6614 13.31 73.7056 13.4806 73.8301C13.6634 73.9635 13.772 74.1408 13.8066 74.3622Z" fill="black"/>
<path d="M2.64451 69.9209C2.6097 69.0363 2.7607 68.2617 3.09751 67.5973C3.44497 66.9325 3.93133 66.4063 4.55658 66.0187C5.1929 65.6414 5.92674 65.4364 6.7581 65.4037C7.69604 65.3668 8.50276 65.5219 9.17826 65.8689C9.86484 66.2262 10.3959 66.7017 10.7716 67.2954C11.1579 67.8886 11.3644 68.5263 11.3913 69.2085C11.4118 69.7307 11.3247 70.2306 11.13 70.7079C10.946 71.1848 10.6745 71.6118 10.3157 71.9889C9.96803 72.3762 9.5479 72.6863 9.05534 72.9192C8.57344 73.1516 8.03959 73.2847 7.4538 73.3185C7.24021 73.3162 7.06099 73.2378 6.91614 73.0834C6.77129 72.929 6.69467 72.7452 6.68629 72.532L6.4416 66.3128L7.78545 65.8757L8.02196 71.887L7.72223 71.5946L8.12192 71.5788C8.49413 71.5428 8.81439 71.4075 9.0827 71.1728C9.36167 70.9376 9.56927 70.6519 9.70549 70.3156C9.85236 69.9789 9.91867 69.6294 9.90441 69.267C9.89183 68.9472 9.82638 68.6402 9.70805 68.346C9.60081 68.062 9.43065 67.8071 9.1976 67.5815C8.96497 67.3664 8.6594 67.197 8.28091 67.0731C7.91349 66.9595 7.45799 66.9133 6.91441 66.9347C6.3282 66.9578 5.82142 67.1005 5.39407 67.3628C4.96672 67.6252 4.63865 67.969 4.40986 68.3943C4.19173 68.8192 4.09252 69.2821 4.11223 69.7831C4.12774 70.1775 4.17784 70.5011 4.26251 70.7539C4.35784 71.0064 4.46748 71.2156 4.59144 71.3815C4.71539 71.5474 4.83317 71.6922 4.94479 71.8159C5.047 71.972 5.10126 72.13 5.10755 72.2899C5.1151 72.4818 5.05211 72.6444 4.91858 72.7777C4.79571 72.9106 4.64368 72.9807 4.46249 72.9878C4.228 72.997 4.01022 72.8882 3.80914 72.6612C3.5207 72.3844 3.25983 71.9943 3.02653 71.4911C2.79366 70.9985 2.66631 70.4751 2.64451 69.9209Z" fill="black"/>
<path d="M3.26348 57.0939C3.28848 56.8713 3.38411 56.6888 3.55037 56.5465C3.72603 56.4159 3.93047 56.3638 4.16367 56.3899L14.3079 57.5292C14.5411 57.5554 14.7236 57.651 14.8553 57.8161C14.9964 57.9929 15.0545 58.1927 15.0295 58.4153C15.0033 58.6485 14.9024 58.8303 14.7267 58.9609C14.5617 59.0926 14.3625 59.1454 14.1293 59.1192L3.9851 57.9799C3.7519 57.9538 3.56413 57.8575 3.4218 57.6913C3.29006 57.5262 3.23729 57.3271 3.26348 57.0939ZM11.0766 63.2201C11.054 63.4215 10.9495 63.5869 10.7633 63.7162C10.577 63.8456 10.3991 63.9008 10.2295 63.8817C10.0175 63.8579 9.83266 63.7352 9.67508 63.5135L5.78198 58.0368L7.61762 58.1786L10.8882 62.6032C11.0388 62.7919 11.1016 62.9975 11.0766 63.2201ZM2.67583 62.4699C2.70083 62.2473 2.81236 62.0666 3.01041 61.9278L6.72245 59.1246L7.69975 60.458L3.99663 63.1817C3.79739 63.3311 3.58646 63.3933 3.36386 63.3683C3.13066 63.3421 2.95057 63.2253 2.8236 63.0178C2.70604 62.8221 2.65678 62.6395 2.67583 62.4699Z" fill="black"/>
<path d="M4.6898 50.0225C4.74677 49.7949 4.86582 49.6268 5.04694 49.5182C5.23841 49.4121 5.44797 49.3876 5.67561 49.4446L12.2566 51.0916C12.4843 51.1486 12.6524 51.2676 12.761 51.4487C12.88 51.6324 12.911 51.8381 12.854 52.0658C12.7996 52.2831 12.6767 52.4447 12.4852 52.5507C12.3015 52.6697 12.0958 52.7007 11.8682 52.6437L10.1298 52.2087L10.8361 52.2205C11.1051 52.3758 11.3431 52.5673 11.55 52.795C11.7543 53.033 11.9198 53.2944 12.0465 53.579C12.1732 53.8636 12.252 54.1637 12.283 54.4793C12.3113 54.8053 12.2854 55.1287 12.2051 55.4495C12.1378 55.7185 12.0071 55.9332 11.813 56.0935C11.6189 56.2539 11.4133 56.3069 11.196 56.2525C10.9166 56.1826 10.7278 56.0583 10.6295 55.8798C10.5416 55.7039 10.5196 55.5279 10.5637 55.352C10.6025 55.1968 10.6711 55.0545 10.7694 54.9252C10.8781 54.7985 10.9571 54.6368 11.0063 54.4402C11.0606 54.2229 11.0594 53.9862 11.0026 53.7301C10.9457 53.4739 10.8268 53.2243 10.6457 52.981C10.4751 52.7404 10.2539 52.5256 9.98232 52.3367C9.70814 52.1581 9.38479 52.0222 9.01228 51.929L5.28717 50.9967C5.05952 50.9397 4.88751 50.8142 4.77115 50.6202C4.66253 50.439 4.63542 50.2398 4.6898 50.0225Z" fill="black"/>
<path d="M13.1662 50.649C13.0815 50.8678 12.9375 51.018 12.7344 51.0994C12.5412 51.1847 12.3352 51.185 12.1163 51.1002L5.67113 48.6032C5.45231 48.5185 5.29528 48.3776 5.20003 48.1805C5.11473 47.9873 5.11446 47.7813 5.19924 47.5625C5.28016 47.3536 5.41914 47.2016 5.61619 47.1063C5.81933 47.0249 6.03031 47.0265 6.24913 47.1113L7.32334 47.5275L7.1572 47.8234C6.97816 47.7541 6.80814 47.6024 6.64712 47.3684C6.48225 47.1444 6.34354 46.8676 6.231 46.538C6.12841 46.2123 6.073 45.8534 6.06476 45.4613C6.06647 45.073 6.14247 44.6849 6.29275 44.297C6.55863 43.6107 6.9716 43.0615 7.53166 42.6493C8.10166 42.241 8.75665 41.9971 9.49663 41.9177C10.2366 41.8384 10.9995 41.9509 11.7852 42.2553C12.5909 42.5674 13.2354 43.0001 13.7188 43.5535C14.2122 44.1107 14.5289 44.7252 14.669 45.3972C14.8051 46.0791 14.7441 46.7533 14.486 47.4197C14.3203 47.8474 14.0984 48.2133 13.8205 48.5174C13.5387 48.8315 13.2363 49.0804 12.9135 49.2642C12.5906 49.448 12.2779 49.5613 11.9753 49.6042C11.6787 49.6609 11.4211 49.6469 11.2023 49.5621L11.3367 49.0823L12.6944 49.6083C12.9032 49.6892 13.0553 49.8282 13.1505 50.0252C13.2419 50.2322 13.2472 50.4402 13.1662 50.649ZM7.60176 44.9929C7.42066 45.4603 7.3801 45.9194 7.48009 46.3699C7.58008 46.8205 7.79544 47.2242 8.12617 47.5811C8.46685 47.9419 8.89082 48.2205 9.39808 48.417C9.91529 48.6174 10.4163 48.6971 10.9012 48.6562C11.3861 48.6153 11.8172 48.462 12.1946 48.1964C12.5721 47.9308 12.8514 47.5643 13.0325 47.0968C13.2097 46.6393 13.2483 46.1852 13.1484 45.7347C13.0445 45.2941 12.8291 44.8904 12.5023 44.5235C12.1715 44.1666 11.7476 43.8879 11.2304 43.6876C10.7231 43.491 10.2221 43.4113 9.72724 43.4484C9.23852 43.4993 8.80737 43.6526 8.43379 43.9082C8.05636 44.1738 7.77902 44.5353 7.60176 44.9929Z" fill="black"/>
<path d="M19.8672 36.483C19.4443 37.1495 18.9519 37.5571 18.39 37.7059C17.8372 37.8604 17.2444 37.819 16.6118 37.5818L16.8165 37.4085L16.9726 37.6402C17.1325 37.9059 17.2552 38.2301 17.3408 38.6129C17.4296 39.0104 17.4449 39.4243 17.3865 39.8547C17.3372 40.2908 17.1925 40.698 16.9524 41.0762C16.5581 41.6977 16.1172 42.0938 15.6298 42.2646C15.1515 42.4411 14.6443 42.454 14.1082 42.3033C13.5812 42.1584 13.043 41.9116 12.4936 41.5629L8.91358 39.2911C8.71545 39.1654 8.58884 38.9966 8.53376 38.7848C8.48768 38.5787 8.52751 38.3766 8.65325 38.1784C8.77327 37.9893 8.93919 37.8672 9.151 37.8121C9.36611 37.7717 9.57274 37.8144 9.77088 37.9402L13.3374 40.2034C13.6526 40.4034 13.9694 40.5413 14.2877 40.617C14.6003 40.7017 14.9018 40.6845 15.192 40.5655C15.4856 40.4613 15.7496 40.2245 15.9839 39.8552C16.2068 39.504 16.3258 39.1373 16.3408 38.7553C16.3592 38.3879 16.2863 38.0448 16.1223 37.726C15.9583 37.4071 15.7187 37.1477 15.4034 36.9476L11.8369 34.6844C11.6388 34.5587 11.5122 34.3899 11.4571 34.1781C11.411 33.972 11.4509 33.7698 11.5766 33.5717C11.7023 33.3736 11.8683 33.2515 12.0744 33.2054C12.2895 33.165 12.4961 33.2077 12.6942 33.3334L16.2742 35.6053C16.5895 35.8053 16.9062 35.9432 17.2246 36.0188C17.5372 36.1035 17.8358 36.0909 18.1203 35.9809C18.4049 35.8709 18.6643 35.6313 18.8987 35.262C19.1216 34.9108 19.2422 34.5515 19.2605 34.1841C19.2789 33.8168 19.2061 33.4737 19.042 33.1548C18.8723 32.845 18.6298 32.59 18.3146 32.39L14.7346 30.1182C14.5364 29.9925 14.4127 29.8192 14.3633 29.5984C14.3173 29.3923 14.3542 29.1946 14.4743 29.0055C14.6 28.8074 14.7659 28.6853 14.972 28.6392C15.1871 28.5988 15.3937 28.6415 15.5919 28.7672L21.3199 32.4022C21.518 32.5279 21.6401 32.6938 21.6862 32.8999C21.7413 33.1117 21.706 33.3167 21.5802 33.5149C21.4602 33.704 21.2926 33.8187 21.0775 33.8591C20.8657 33.9142 20.6607 33.8788 20.4626 33.7531L19.6655 33.2473L19.6798 32.8963C19.838 33.0851 19.9749 33.3173 20.0906 33.5928C20.2063 33.8684 20.2811 34.1685 20.315 34.4933C20.3433 34.827 20.3257 35.1633 20.2623 35.502C20.1989 35.8408 20.0672 36.1678 19.8672 36.483Z" fill="black"/>
<path d="M22.1073 20.211C22.7673 19.6209 23.4608 19.2443 24.1876 19.081C24.9215 18.9257 25.6369 18.9657 26.3338 19.2012C27.0299 19.4517 27.6552 19.8871 28.2097 20.5074C28.8353 21.2072 29.2293 21.928 29.3917 22.6699C29.5533 23.4268 29.5247 24.1391 29.306 24.8067C29.0944 25.4823 28.7342 26.0476 28.2252 26.5026C27.8356 26.8509 27.3947 27.1019 26.9026 27.2557C26.4176 27.4174 25.9155 27.4799 25.3963 27.4433C24.8763 27.4217 24.3697 27.2952 23.8765 27.0636C23.3905 26.8399 22.948 26.513 22.549 26.0827C22.4148 25.9166 22.3611 25.7285 22.388 25.5185C22.4149 25.3085 22.5078 25.1324 22.6669 24.9902L27.3071 20.8421L28.4997 21.6001L24.0146 25.6096L24.0493 25.1922L24.3159 25.4904C24.5806 25.7546 24.8889 25.9154 25.2407 25.9728C25.5997 26.0383 25.9522 26.0164 26.2982 25.9074C26.6514 25.8063 26.9631 25.6349 27.2335 25.3932C27.4721 25.1799 27.6672 24.934 27.8187 24.6554C27.9695 24.3919 28.0577 24.0985 28.0833 23.7751C28.101 23.4588 28.0372 23.1153 27.8918 22.7445C27.7455 22.3888 27.4911 22.0082 27.1285 21.6026C26.7375 21.1652 26.3048 20.8653 25.8305 20.7027C25.3561 20.5402 24.8821 20.5061 24.4084 20.6004C23.9419 20.7027 23.5217 20.921 23.148 21.2551C22.8537 21.5181 22.6361 21.7628 22.495 21.9891C22.361 22.2233 22.2695 22.441 22.2204 22.6422C22.1714 22.8435 22.1347 23.0265 22.1104 23.1913C22.0551 23.3695 21.9678 23.5119 21.8485 23.6186C21.7053 23.7465 21.5398 23.8015 21.352 23.7834C21.1713 23.7733 21.0205 23.7006 20.8996 23.5654C20.7432 23.3905 20.6885 23.1532 20.7355 22.8537C20.7654 22.455 20.9001 22.0055 21.1396 21.5052C21.3712 21.0121 21.6938 20.5806 22.1073 20.211Z" fill="black"/>
<path d="M34.2439 21.5936C33.6097 22.0075 33.0309 22.1942 32.5077 22.1536C31.9902 22.122 31.5188 21.9266 31.0933 21.5674C30.6647 21.223 30.2725 20.7784 29.9169 20.2336L27.5731 16.6428C27.4448 16.4463 27.4039 16.2373 27.4504 16.0159C27.4939 15.8092 27.6094 15.6447 27.7969 15.5222C27.9935 15.3939 28.195 15.3515 28.4017 15.3949C28.6142 15.4473 28.7846 15.5717 28.9129 15.7682L31.248 19.3456C31.4579 19.6672 31.6891 19.9238 31.9417 20.1156C32.2001 20.3164 32.4905 20.4198 32.8129 20.4259C33.1322 20.4467 33.4884 20.3289 33.8814 20.0723C34.2476 19.8333 34.5167 19.543 34.6887 19.2015C34.8664 18.8689 34.9512 18.5206 34.9429 18.1566C34.9315 17.8074 34.8208 17.472 34.6109 17.1504L32.2759 13.5731C32.1476 13.3766 32.1067 13.1676 32.1532 12.9462C32.1967 12.7395 32.3122 12.5749 32.4997 12.4525C32.6963 12.3242 32.8978 12.2818 33.1045 12.3252C33.317 12.3776 33.4874 12.502 33.6157 12.6985L37.3238 18.3794C37.4521 18.5759 37.4945 18.7775 37.4511 18.9842C37.4135 19.1998 37.2964 19.3717 37.0999 19.5C36.9124 19.6224 36.7123 19.6575 36.4998 19.6051C36.2842 19.5675 36.1123 19.4505 35.984 19.254L35.4942 18.5037L35.648 18.2123C35.7137 18.4496 35.7348 18.7161 35.7112 19.0117C35.6845 19.3221 35.6149 19.635 35.5024 19.9505C35.3957 20.2749 35.236 20.5766 35.0232 20.8556C34.8163 21.1435 34.5565 21.3895 34.2439 21.5936Z" fill="black"/>
<path d="M37.6112 10.5776C37.5083 10.3667 37.489 10.1566 37.553 9.94733C37.6218 9.74765 37.7616 9.59638 37.9726 9.49352C38.1739 9.39533 38.3792 9.37828 38.5885 9.44237C38.7928 9.52072 38.9464 9.66536 39.0493 9.87628L42.051 16.0313C42.1539 16.2423 42.1709 16.4476 42.1022 16.6472C42.0285 16.8612 41.891 17.0173 41.6897 17.1154C41.4787 17.2183 41.2711 17.2306 41.0667 17.1522C40.8671 17.0834 40.7158 16.9436 40.6129 16.7327L37.6112 10.5776ZM42.1669 18.0576C42.4449 17.922 42.6697 17.8717 42.8411 17.9068C43.0171 17.9515 43.1636 18.0937 43.2805 18.3334L43.3927 18.5635C43.5096 18.8031 43.5243 19.0037 43.4368 19.165C43.3494 19.3263 43.1714 19.4724 42.903 19.6034C42.6153 19.7436 42.3835 19.7914 42.2074 19.7467C42.036 19.7116 41.8942 19.5791 41.782 19.349L41.6698 19.1189C41.5482 18.8696 41.5312 18.6643 41.6187 18.503C41.6965 18.3463 41.8793 18.1978 42.1669 18.0576Z" fill="black"/>
<path d="M42.4086 8.43166C42.3249 8.21244 42.3293 7.99955 42.4216 7.793C42.5079 7.60021 42.6556 7.46386 42.8649 7.38395C43.0741 7.30403 43.2801 7.30528 43.4829 7.3877C43.6795 7.4839 43.8196 7.64161 43.9034 7.86083L47.5453 17.3971C47.629 17.6163 47.6228 17.8242 47.5266 18.0208C47.4342 18.2273 47.2834 18.3706 47.0741 18.4505C46.8549 18.5342 46.652 18.5261 46.4653 18.4261C46.2726 18.3398 46.1343 18.1871 46.0506 17.9679L42.4086 8.43166Z" fill="black"/>
<path d="M50.6251 13.8493C49.8895 14.0295 49.2817 14.0137 48.8015 13.8019C48.3238 13.6004 47.9438 13.2597 47.6615 12.7797C47.3714 12.3127 47.1489 11.7632 46.9941 11.1312L45.9737 6.96638C45.9179 6.73845 45.9486 6.52775 46.066 6.33428C46.1755 6.1537 46.339 6.03676 46.5566 5.98346C46.7845 5.92762 46.9888 5.95445 47.1693 6.06396C47.3524 6.18383 47.4719 6.35773 47.5278 6.58566L48.5443 10.735C48.6357 11.1079 48.7687 11.4268 48.9434 11.6915C49.1206 11.9665 49.3603 12.1604 49.6624 12.2731C49.9567 12.3986 50.3318 12.4056 50.7877 12.2939C51.2125 12.1898 51.5626 12.0052 51.8381 11.7401C52.1161 11.4853 52.3115 11.1848 52.4244 10.8386C52.5295 10.5054 52.5363 10.1523 52.4449 9.77934L51.4284 5.63004C51.3726 5.40212 51.4033 5.19141 51.5207 4.99794C51.6302 4.81736 51.7937 4.70042 52.0113 4.64712C52.2392 4.59128 52.4434 4.61812 52.624 4.72762C52.8071 4.8475 52.9266 5.02139 52.9825 5.24932L54.5967 11.8385C54.6526 12.0664 54.6257 12.2706 54.5162 12.4512C54.4092 12.6422 54.2418 12.7655 54.0139 12.8214C53.7963 12.8747 53.596 12.8414 53.4128 12.7215C53.2219 12.6146 53.0985 12.4471 53.0427 12.2192L52.8295 11.3489L53.0711 11.125C53.0544 11.3707 52.986 11.6291 52.8657 11.9001C52.7376 12.1841 52.5681 12.4562 52.3573 12.7165C52.1491 12.9872 51.8984 13.2189 51.6051 13.4115C51.3144 13.6145 50.9877 13.7604 50.6251 13.8493Z" fill="black"/>
<path d="M55.0156 8.11299C54.9473 7.26239 55.0728 6.49255 55.392 5.80347C55.7121 5.12503 56.1762 4.57413 56.7843 4.1508C57.3924 3.72746 58.0951 3.48379 58.8926 3.41979C59.69 3.35579 60.4226 3.48426 61.0904 3.8052C61.7583 4.12613 62.3096 4.59553 62.7444 5.21339C63.1694 5.84274 63.4161 6.58271 63.4844 7.43331C63.5535 8.29454 63.428 9.06438 63.1079 9.74283C62.7781 10.4328 62.3091 10.9894 61.701 11.4127C61.0938 11.8467 60.3914 12.0957 59.594 12.1597C58.7966 12.2237 58.0635 12.0899 57.3949 11.7583C56.727 11.4374 56.1806 10.9623 55.7556 10.3329C55.3314 9.7142 55.0847 8.97422 55.0156 8.11299ZM56.6105 7.98499C56.6574 8.56978 56.8149 9.06543 57.0829 9.47196C57.3518 9.88912 57.6981 10.2038 58.1218 10.4159C58.5357 10.6395 58.9872 10.7317 59.4763 10.6924C59.9653 10.6532 60.4017 10.4897 60.7852 10.2021C61.1696 9.92514 61.4613 9.55931 61.6602 9.1046C61.86 8.66053 61.9364 8.1461 61.8895 7.56131C61.8443 6.99779 61.6872 6.50745 61.4183 6.09029C61.1494 5.67313 60.8031 5.35849 60.3795 5.14637C59.9558 4.93425 59.4994 4.84782 59.0103 4.88707C58.5212 4.92633 58.0898 5.08401 57.716 5.36013C57.3316 5.63711 57.04 6.00295 56.841 6.45765C56.6421 6.91236 56.5652 7.42147 56.6105 7.98499Z" fill="black"/>
</svg>
