<svg width="47" height="67" viewBox="0 0 47 67" fill="none" xmlns="http://www.w3.org/2000/svg">
<path fill-rule="evenodd" clip-rule="evenodd" d="M21.5928 0.109415C26.2391 -0.476698 29.8704 1.31037 32.6153 5.02738C32.7582 5.22752 32.901 5.42784 33.044 5.62797C33.0583 5.64227 33.0871 5.65672 33.1729 5.71391C33.3729 5.65675 33.6159 5.57113 33.8731 5.48539C36.1604 4.77059 38.4767 4.64147 40.7783 5.38481C43.5947 6.29975 45.4107 8.1868 46.2256 11.0459C46.7546 12.9188 46.8115 14.8065 46.2539 16.6651C45.2246 20.1531 42.8086 22.0687 39.249 22.5977C38.5914 22.6978 37.9336 22.7261 37.2188 22.7832C37.152 24.1051 37.0974 25.4149 37.044 26.6885C37.7046 27.213 38.3354 27.7739 38.9346 28.3731C40.9361 30.3746 42.5236 32.7195 43.6817 35.4073C44.8396 38.0949 45.4258 40.9546 45.4258 43.9854C45.4258 47.0159 44.8395 49.875 43.6817 52.5625C42.5236 55.2503 40.9361 57.5952 38.9346 59.5967C36.9332 61.5981 34.5889 63.1848 31.9014 64.3428C29.2137 65.5008 26.354 66.0869 23.3233 66.087C20.2924 66.087 17.4329 65.5008 14.7451 64.3428C12.0575 63.1848 9.71242 61.5982 7.71096 59.5967C5.70955 57.5953 4.12284 55.2502 2.96486 52.5625C1.80699 49.875 1.22077 47.016 1.22072 43.9854C1.22072 40.9546 1.80689 38.095 2.96486 35.4073C4.12286 32.7196 5.7095 30.3746 7.71096 28.3731C8.40415 27.6799 9.13956 27.0375 9.91506 26.4444C9.86268 25.3308 9.8027 24.1943 9.74123 23.0264C9.54108 22.9978 9.3692 22.9551 9.21194 22.9551C4.67999 22.9837 1.23463 19.8815 0.291037 15.6641C-0.295119 13.0193 -0.0517312 10.4884 1.53518 8.22953C3.00766 6.09969 5.12321 4.956 7.69631 4.71293C9.65492 4.52708 11.5278 4.85632 13.3291 5.64262C13.4148 5.68547 13.5149 5.72828 13.6006 5.75688C13.6435 5.77117 13.7014 5.7709 13.8301 5.7852C13.9587 5.57083 14.1016 5.32793 14.2588 5.085C15.9887 2.36867 18.3332 0.524013 21.5928 0.109415ZM24.7237 34.0918C22.9082 33.4345 21.4362 34.078 20.3926 35.8506C19.3919 37.5375 18.4477 39.267 17.4756 40.9825C17.4614 40.9684 17.4468 40.9684 17.4326 40.9541C16.6321 42.3694 15.8318 43.7704 15.0313 45.1856C14.8598 45.4857 14.6881 45.8005 14.5166 46.1006C13.2156 48.5167 14.7024 51.2192 17.4473 51.2764C21.5075 51.3622 25.5678 51.3623 29.628 51.3194C32.3728 51.2907 33.9598 48.5737 32.6446 46.1719C30.6574 42.5979 28.6129 39.0524 26.4971 35.5498C26.1111 34.9208 25.4099 34.3349 24.7237 34.0918ZM32.043 15.4922C26.4389 19.2091 20.6779 19.767 14.7022 16.2217C13.9016 17.68 12.8572 18.824 11.3418 19.4102C11.4279 21.4022 11.5152 23.3307 11.6104 25.2686C12.5976 24.65 13.6423 24.1021 14.7451 23.627C17.4329 22.469 20.2924 21.8829 23.3233 21.8829C26.354 21.8829 29.2137 22.469 31.9014 23.627C33.1292 24.156 34.2846 24.7758 35.3692 25.4825C35.4444 23.1522 35.5114 20.8623 35.5889 18.6661C34.8456 18.1086 34.2021 17.6943 33.6446 17.1797C33.087 16.6794 32.6006 16.0784 32.043 15.4922ZM28.3838 3.32621C25.2816 1.38199 22.0505 1.0959 18.791 2.95414C16.9468 4.01208 15.745 5.65631 14.9444 7.60063C14.8157 7.92941 14.6732 8.24406 14.4873 8.67289C13.7153 7.85805 12.9572 7.31517 12.0137 6.98637C10.5412 6.48605 9.02575 6.27166 7.49611 6.51469C4.92291 6.92935 3.06437 8.3017 2.14944 10.8321C1.63489 12.2615 1.64946 13.7338 1.96389 15.2061C2.59293 18.2941 4.76565 20.4965 7.73928 21.0684C8.35389 21.1827 8.98291 21.2394 9.66897 21.168C9.64038 20.6534 9.62627 20.2098 9.59768 19.7666C8.28253 19.5951 7.06697 19.3382 6.33791 18.1231C6.83829 18.1374 7.31046 18.2092 7.78225 18.295C10.4843 18.7239 12.4283 17.5937 13.2432 15.0918C12.3855 14.3057 11.3567 13.6192 11.128 12.3184C11.7713 12.6758 12.3575 13.076 12.9151 13.5049C14.5591 14.763 16.3888 15.6352 18.376 16.2071C21.8786 17.2078 25.2955 17.1077 28.6123 15.4922C29.5558 15.0348 30.4856 14.5202 31.2862 13.834C31.1718 12.7332 30.843 11.6611 31.6436 10.5889C31.7865 11.0892 31.8866 11.4608 32.001 11.8467C32.53 13.6481 33.3584 15.2785 34.7451 16.5938C35.7173 17.5087 36.8474 18.137 38.0625 18.6231C38.3198 18.7231 38.5484 18.8662 38.8057 18.9805L38.7627 19.1954C38.3196 19.2239 37.8908 19.2671 37.3477 19.3243V20.9541C38.3912 21.0542 39.4066 20.8966 40.4072 20.5821C42.3943 19.953 43.7523 18.6516 44.4385 16.6788C45.0817 14.8203 45.0388 12.9473 44.3955 11.0889C43.7522 9.20204 42.4943 7.91542 40.6074 7.21488C38.077 6.27132 35.6173 6.58601 33.2012 7.65824C32.9154 7.78688 32.6293 7.93001 32.3721 8.05863C32.2863 7.98715 32.2292 7.95797 32.2149 7.91508C32.1578 7.81511 32.1001 7.70117 32.043 7.58695C31.2281 5.81427 30.0278 4.35555 28.3838 3.32621Z" fill="white"/>
</svg>
