<svg width="86" height="45" viewBox="0 0 86 45" fill="none" xmlns="http://www.w3.org/2000/svg">
<path d="M4.678 18.287C4.6862 18.0177 4.71901 16.8564 4.6944 16.5952C4.6698 16.3586 4.74362 16.1791 4.91585 16.0403C5.16191 15.8363 5.41616 15.6323 5.70323 15.4038C5.67042 14.6694 5.62941 13.9187 5.5884 13.1434C5.47358 13.1271 5.37515 13.1026 5.28493 13.1026C2.68497 13.1189 0.708333 11.3482 0.167014 8.94087C-0.169259 7.43121 -0.0298287 5.98684 0.88057 4.69751C1.72536 3.48163 2.93922 2.8288 4.41554 2.69008C5.53919 2.58399 6.61362 2.77168 7.64705 3.2205C7.69626 3.24498 7.75367 3.26946 7.80288 3.28578C7.82749 3.29394 7.8603 3.29394 7.93411 3.3021C8.00793 3.1797 8.08995 3.04097 8.18017 2.90225C9.17258 1.35179 10.5177 0.29911 12.3877 0.0624614C15.0533 -0.272111 17.1365 0.747926 18.7113 2.86961C18.7933 2.98385 18.8753 3.09809 18.9573 3.21234C18.9655 3.2205 18.9819 3.22866 19.0311 3.2613C19.146 3.22866 19.2854 3.1797 19.433 3.13073C20.7453 2.72272 22.074 2.64928 23.3945 3.07361C25.0102 3.59587 26.0519 4.67303 26.5194 6.30509C26.8228 7.37409 26.8557 8.45125 26.5358 9.51209C25.9453 11.5032 24.5591 12.5967 22.5169 12.8986C22.1396 12.9557 21.7623 12.9721 21.3522 13.0047C21.3112 13.8126 21.2784 14.6123 21.2456 15.3875C21.5245 15.616 21.7787 15.8118 22.0248 16.0159C22.197 16.1627 22.2626 16.3423 22.2462 16.5789C22.2216 16.84 22.2544 18.0014 22.2626 18.2707C21.9264 18.2707 21.5819 18.2707 21.2456 18.2707C21.2456 18.034 21.2456 16.9053 21.2456 16.6687C20.8519 16.3259 20.4336 16.1056 19.9743 15.9424C18.3832 15.3875 16.7264 15.159 15.0615 15.1182C13.6098 15.0774 12.1498 15.1345 10.6981 15.1998C9.47605 15.2569 8.28679 15.5181 7.13034 15.8934C6.62183 16.0567 6.12152 16.2607 5.70323 16.6768C5.70323 16.9053 5.70323 18.034 5.70323 18.2707C5.35875 18.287 5.02248 18.287 4.678 18.287ZM21.4261 11.0299C21.4261 11.34 21.4261 11.6419 21.4261 11.9602C22.0248 12.0173 22.6071 11.9275 23.1812 11.748C24.3213 11.389 25.1005 10.6464 25.4942 9.52025C25.8632 8.45941 25.8386 7.39041 25.4695 6.32957C25.1005 5.25241 24.3787 4.51799 23.2961 4.11813C21.8444 3.57955 20.4336 3.75908 19.0475 4.3711C18.8835 4.44454 18.7195 4.52615 18.5718 4.59959C18.5226 4.55879 18.4898 4.54247 18.4816 4.51799C18.4488 4.46086 18.416 4.39558 18.3832 4.3303C17.9157 3.31842 17.2267 2.48607 16.2835 1.89853C14.5037 0.788728 12.6501 0.625522 10.7801 1.68636C9.7221 2.29022 9.03315 3.22866 8.57385 4.33846C8.50004 4.52615 8.41802 4.70567 8.3114 4.95048C7.8685 4.48535 7.4338 4.17525 6.89249 3.98757C6.0477 3.70196 5.17831 3.57955 4.30072 3.71828C2.8244 3.95493 1.75816 4.73831 1.23325 6.18269C0.937983 6.99872 0.946185 7.83923 1.12662 8.67974C1.4875 10.4424 2.73418 11.6991 4.44015 12.0255C4.79283 12.0907 5.1537 12.1234 5.54739 12.0826C5.53099 11.7888 5.52279 11.5358 5.50638 11.2829C4.75182 11.185 4.05466 11.0381 3.63637 10.3444C3.92344 10.3526 4.1941 10.3934 4.46475 10.4424C6.01489 10.6872 7.13034 10.0425 7.59784 8.61446C7.10573 8.16564 6.5152 7.77395 6.38397 7.03136C6.75306 7.23537 7.08933 7.46386 7.4092 7.70866C8.35241 8.42677 9.40223 8.92455 10.5423 9.25096C12.5517 9.82218 14.512 9.76506 16.4148 8.84295C16.9561 8.58182 17.4892 8.28805 17.9485 7.89635C17.8829 7.26801 17.6942 6.65599 18.1535 6.04396C18.2356 6.32957 18.293 6.54174 18.3586 6.76207C18.6621 7.79027 19.1378 8.72054 19.9333 9.47129C20.4911 9.99355 21.139 10.3526 21.8362 10.6301C21.9838 10.6872 22.115 10.7688 22.2626 10.8341C22.2544 10.8749 22.2462 10.9157 22.238 10.9565C21.9838 10.9728 21.7377 10.9973 21.4261 11.0299ZM6.68744 14.9632C11.264 13.7718 15.7504 13.7718 20.2778 14.9713C20.327 13.4943 20.368 12.0418 20.4172 10.6545C19.9907 10.3363 19.6217 10.0996 19.3018 9.80586C18.9819 9.52025 18.7031 9.17752 18.3832 8.84295C15.1681 10.9646 11.8628 11.2829 8.43442 9.25912C7.97512 10.0915 7.37639 10.7443 6.507 11.0789C6.56441 12.4008 6.62183 13.6738 6.68744 14.9632Z" fill="#3838F9"/>
<path d="M17.3646 16.9487C22.7077 16.9487 25.3793 19.6204 25.3793 24.9634V36.9849C25.3793 42.3279 22.7077 44.9995 17.3646 44.9995H9.34998C4.00739 44.9993 1.33533 42.3276 1.33533 36.9849V24.9634C1.33533 19.6206 4.00739 16.949 9.34998 16.9487H17.3646ZM43.4125 32.978L47.4193 16.9487H59.4418V44.9995H49.4232V31.6353L47.4193 44.9995H39.4047L37.4017 31.6958V44.9995H27.3832V16.9487H39.4047L43.4125 32.978ZM77.474 16.9487C82.817 16.9487 85.4886 19.6204 85.4886 24.9634C85.4886 27.6347 84.1531 29.6384 81.4818 30.9741C84.1531 32.3099 85.4886 34.3135 85.4886 36.9849C85.4886 42.3279 82.817 44.9995 77.474 44.9995H61.4447V16.9487H77.474ZM71.4633 36.9849H75.4701V34.981H71.4633V36.9849ZM11.3236 26.4956C10.4615 25.9942 9.3656 26.5967 9.3656 27.5708V34.4263C9.36647 35.4008 10.4613 36.0025 11.3226 35.5015L17.2123 32.0737C18.0486 31.5866 18.0486 30.4104 17.2123 29.9233L11.3236 26.4956ZM71.4633 26.9673H75.4701V24.9634H71.4633V26.9673Z" fill="#3838F9"/>
</svg>
