<svg width="299" height="502" viewBox="0 0 299 502" fill="none" xmlns="http://www.w3.org/2000/svg">
<path d="M52.1873 204.007C52.2788 201.003 52.6448 188.047 52.3703 185.134C52.0958 182.494 52.9193 180.491 54.8407 178.943C57.5857 176.668 60.4221 174.392 63.6246 171.843C63.2586 163.65 62.8011 155.274 62.3436 146.626C61.0626 146.444 59.9647 146.171 58.9582 146.171C29.9532 146.353 7.90209 126.598 1.8632 99.7429C-1.88824 82.9015 -0.332766 66.7883 9.82355 52.4047C19.2479 38.8405 32.7896 31.5577 49.2593 30.0101C61.7946 28.8266 73.7809 30.9204 85.3097 35.9274C85.8587 36.2005 86.4992 36.4736 87.0482 36.6557C87.3227 36.7467 87.6886 36.7467 88.5121 36.8377C89.3356 35.4722 90.2506 33.9246 91.2571 32.377C102.328 15.0803 117.334 3.33683 138.196 0.69681C167.933 -3.03563 191.173 8.34375 208.741 32.0129C209.656 33.2874 210.571 34.5618 211.486 35.8363C211.577 35.9274 211.76 36.0184 212.309 36.3825C213.59 36.0184 215.146 35.4722 216.793 34.926C231.433 30.3742 246.255 29.5549 260.987 34.2887C279.012 40.115 290.632 52.1316 295.847 70.3386C299.233 82.2642 299.599 94.2808 296.03 106.115C289.443 128.328 273.979 140.527 251.196 143.895C246.987 144.532 242.778 144.714 238.203 145.078C237.746 154.091 237.38 163.012 237.014 171.661C240.125 174.21 242.961 176.394 245.706 178.67C247.628 180.309 248.36 182.312 248.177 184.952C247.902 187.865 248.268 200.821 248.36 203.825C244.608 203.825 240.765 203.825 237.014 203.825C237.014 201.185 237.014 188.593 237.014 185.953C232.622 182.13 227.956 179.672 222.832 177.851C205.081 171.661 186.598 169.112 168.024 168.656C151.829 168.201 135.542 168.839 119.347 169.567C105.714 170.204 92.4466 173.117 79.5453 177.305C73.8724 179.125 68.291 181.401 63.6246 186.044C63.6246 188.593 63.6246 201.185 63.6246 203.825C59.7817 204.007 56.0302 204.007 52.1873 204.007ZM239.027 123.048C239.027 126.507 239.027 129.876 239.027 133.426C245.706 134.063 252.203 133.062 258.608 131.059C271.326 127.053 280.018 118.769 284.41 106.206C288.528 94.3719 288.253 82.4463 284.136 70.6117C280.018 58.5951 271.966 50.4019 259.889 45.9412C243.693 39.9329 227.956 41.9357 212.492 48.7633C210.662 49.5826 208.832 50.493 207.186 51.3123C206.637 50.8571 206.271 50.675 206.179 50.4019C205.813 49.7647 205.447 49.0364 205.081 48.3081C199.866 37.0198 192.18 27.7342 181.657 21.1797C161.802 8.79893 141.124 6.97823 120.262 18.8128C108.459 25.5494 100.773 36.0184 95.649 48.3992C94.8255 50.493 93.9105 52.4957 92.7211 55.2268C87.7802 50.0378 82.9307 46.5785 76.8918 44.4847C67.4675 41.2984 57.7687 39.9329 47.9784 41.4805C31.5087 44.1205 19.6139 52.8599 13.758 68.9731C10.464 78.0766 10.5555 87.4532 12.5685 96.8298C16.5944 116.493 30.5022 130.513 49.5338 134.154C53.4683 134.882 57.4942 135.247 61.8861 134.791C61.7031 131.514 61.6116 128.692 61.4286 125.87C53.0108 124.778 45.2334 123.139 40.567 115.401C43.7694 115.492 46.7889 115.947 49.8083 116.493C67.1015 119.224 79.5453 112.033 84.7607 96.1015C79.2708 91.0946 72.6829 86.7249 71.219 78.4407C75.3364 80.7166 79.0878 83.2656 82.6562 85.9966C93.1786 94.0077 104.89 99.5609 117.609 103.202C140.026 109.575 161.894 108.937 183.121 98.6505C189.16 95.7374 195.108 92.4601 200.232 88.0905C199.5 81.0808 197.395 74.2531 202.519 67.4255C203.434 70.6117 204.075 72.9786 204.807 75.4366C208.192 86.907 213.499 97.285 222.374 105.66C228.596 111.486 235.825 115.492 243.602 118.587C245.249 119.224 246.713 120.135 248.36 120.863C248.268 121.318 248.177 121.773 248.085 122.229C245.249 122.411 242.504 122.684 239.027 123.048ZM74.6044 166.927C125.66 153.636 175.71 153.636 226.217 167.018C226.766 150.54 227.224 134.336 227.773 118.86C223.015 115.31 218.897 112.67 215.329 109.393C211.76 106.206 208.649 102.383 205.081 98.6505C169.214 122.32 132.34 125.87 94.0935 103.293C88.9696 112.579 82.2903 119.862 72.5914 123.594C73.2319 138.342 73.8724 152.543 74.6044 166.927Z" fill="#3838F9"/>
<path d="M193.724 189.078C253.331 189.078 283.134 218.881 283.134 278.486V412.599C283.134 472.204 253.331 502.008 193.724 502.008H104.315C44.7086 502.008 14.9049 472.204 14.9048 412.599V278.486C14.9049 218.881 44.7086 189.078 104.315 189.078H193.724ZM126.324 295.586C116.706 289.991 104.477 296.706 104.477 307.573V384.053C104.485 394.927 116.706 401.641 126.317 396.046L192.021 357.807C201.351 352.373 201.351 339.253 192.021 333.819L126.324 295.586Z" fill="#3838F9"/>
</svg>
