<svg width="18" height="18" viewBox="0 0 18 18" fill="none" xmlns="http://www.w3.org/2000/svg">
<path d="M12.2929 9.3915C12.4331 9.294 12.5032 9.1635 12.5032 9C12.5032 8.8365 12.4331 8.706 12.2929 8.6085L7.31925 5.43037C7.16025 5.32762 7.00425 5.31825 6.85125 5.40225C6.6975 5.4855 6.62062 5.61825 6.62062 5.8005V12.1995C6.62062 12.381 6.6975 12.5137 6.85125 12.5977C7.00425 12.681 7.16025 12.6716 7.31925 12.5696L12.2929 9.3915ZM1.818 18C1.29975 18 0.867375 17.8267 0.520875 17.4802C0.174375 17.1337 0.00075 16.701 0 16.182V1.818C0 1.29975 0.173625 0.867375 0.520875 0.520875C0.868125 0.174375 1.3005 0.00075 1.818 0H16.1831C16.7006 0 17.133 0.173625 17.4802 0.520875C17.8275 0.868125 18.0007 1.3005 18 1.818V16.1831C18 16.7006 17.8267 17.133 17.4802 17.4802C17.1337 17.8275 16.701 18.0007 16.182 18H1.818ZM1.818 16.875H16.1831C16.3556 16.875 16.5142 16.803 16.659 16.659C16.8037 16.515 16.8757 16.356 16.875 16.182V1.818C16.875 1.64475 16.803 1.48575 16.659 1.341C16.515 1.19625 16.356 1.12425 16.182 1.125H1.818C1.64475 1.125 1.48575 1.197 1.341 1.341C1.19625 1.485 1.12425 1.644 1.125 1.818V16.1831C1.125 16.3556 1.197 16.5142 1.341 16.659C1.485 16.8037 1.64362 16.8757 1.81687 16.875" fill="white"/>
</svg>
