<svg width="16" height="16" viewBox="0 0 16 16" fill="none" xmlns="http://www.w3.org/2000/svg">
<path d="M7.50801 0.284063C7.68936 -0.094707 8.22861 -0.0947071 8.40996 0.284063L10.4396 4.52312C10.5125 4.67536 10.6573 4.78055 10.8246 4.80282L15.4833 5.42317C15.8996 5.4786 16.0662 5.99145 15.7621 6.28097L12.3577 9.5212C12.2354 9.63757 12.1801 9.80777 12.2106 9.97377L13.0603 14.5962C13.1362 15.0093 12.6999 15.3262 12.3306 15.1264L8.19691 12.8899C8.04846 12.8096 7.86951 12.8096 7.72106 12.8899L3.5874 15.1264C3.21805 15.3262 2.78179 15.0093 2.85771 14.5962L3.70736 9.97377C3.73787 9.80777 3.68257 9.63757 3.56031 9.5212L0.155917 6.28097C-0.148273 5.99145 0.0183622 5.4786 0.434635 5.42317L5.09341 4.80282C5.26072 4.78055 5.40549 4.67536 5.47838 4.52312L7.50801 0.284063Z" fill="#FFC800"/>
</svg>
